<?xml version="1.0" standalone="no"?>
<!DOCTYPE svg PUBLIC "-//W3C//DTD SVG 1.1//EN" "http://www.w3.org/Graphics/SVG/1.1/DTD/svg11.dtd" >
<svg xmlns="http://www.w3.org/2000/svg">
<metadata>Generated by IcoMoon</metadata>
<defs>
<font id="mm-custom-icon" horiz-adv-x="1024">
<font-face units-per-em="1024" ascent="960" descent="-64" />
<missing-glyph horiz-adv-x="1024" />
<glyph unicode="&#x20;" horiz-adv-x="512" d="" />
<glyph unicode="&#x24;" glyph-name="icon-track" d="M0 448q0-106 40-199t110-163 163-110 199-40 199 40 163 110 110 163 40 199-40 199-110 163-163 110-199 40-199-40-163-110-110-163-40-199zM104 448q0 84 32 159t88 129q54 56 129 88t159 32 159-32 129-88q56-54 88-129t32-159-32-159-88-129q-54-56-129-88t-159-32-159 32-129 88q-56 54-88 129t-32 159zM148 450q0-14 10-25t26-11 26 11 10 25q0 16-10 27t-26 11-26-11-10-27zM340 660l110-190q-4-8-4-17t2-17q0-8 4-16t10-16q6-6 13-11t15-9q8-2 17-3t17 1l160-140-106 184q2 8 3 17t-1 17q0 8-4 17t-10 15q-6 8-13 13t-15 7q-8 4-16 5t-18-1zM474 124q0-16 11-26t25-10q16 0 27 10t11 26-11 26-27 10q-14 0-25-10t-11-26zM474 778q0-16 11-27t25-11q16 0 27 11t11 27q0 14-11 25t-27 11q-14 0-25-11t-11-25zM800 450q0-14 11-25t27-11q14 0 25 11t11 25q0 16-11 27t-25 11q-16 0-27-11t-11-27z" />
<glyph unicode="&#x29;" glyph-name="uni29" horiz-adv-x="1372" d="M0 444l508-508 864 870-150 150-716-714-352 352z" />
<glyph unicode="&#x2a;" glyph-name="uni2A" horiz-adv-x="896" d="M0 0q0-14 5-25t13-21q10-8 21-13t25-5h768q14 0 25 5t21 13q8 10 13 21t5 25v480q0 14-5 25t-13 21q-10 8-21 13t-25 5h-64v96q0 66-25 124t-69 102-102 69-124 25-124-25-102-69-69-102-25-124v-96h-64q-14 0-25-5t-21-13q-8-10-13-21t-5-25v-480zM256 544v96q0 40 15 75t41 61 61 41 75 15 75-15 61-41 41-61 15-75v-96h-384zM352 294q0 20 8 37t20 31q14 12 31 20t37 8 37-8 31-20q12-14 20-31t8-37q0-16-5-30t-13-26-20-21-26-13v-134h-64v134q-14 4-26 13t-20 21-13 26-5 30z" />
<glyph unicode="&#x2e;" glyph-name="user-2e" horiz-adv-x="1158" d="M0-62h1158q0 92-28 157t-76 111q-50 44-119 76t-151 60q-22-28-47-48t-51-34-53-22-53-8q-28 0-55 8t-53 22-51 34-47 48q-82-28-151-60t-117-76q-50-46-78-111t-28-157zM290 676q0-58 23-126t61-126q40-58 93-97t113-39 112 39 92 97 62 126 22 126-22 110-62 90-92 60-112 22-113-22-93-60q-38-38-61-90t-23-110z" />
<glyph unicode="&#x36;" glyph-name="uni36" horiz-adv-x="1216" d="M0 78q0-30 11-56t31-44q18-20 44-31t56-11h740q30 0 56 11t44 31q20 18 31 44t11 56v588q20 22 42 44l44 44t44 43 46 41q10 10 14 23t0 27l-12 38q-6 14-19 24t-31 10q-6 0-13-2t-13-6q-16-8-30-18t-30-18l-28-20t-26-18q-10 18-23 33t-29 25q-18 12-37 18t-41 6h-740q-30 0-56-11t-44-31q-20-18-31-44t-11-56v-740zM106 78v740q0 14 11 25t25 11h740q14 0 25-11t11-25v-12q-54-44-103-90t-95-92q-44-46-86-92t-80-90q-4-6-12-6t-12 4l-150 158q-6 8-16 11t-20 3-19-3-15-9l-102-90q-8-6-13-16t-5-20 5-19 11-17l332-318q6-6 15-10t19-4q14 0 26 7t18 19q36 56 72 110t74 106q36 52 75 102t81 98v-470q0-14-11-25t-25-11h-740q-14 0-25 11t-11 25z" />
<glyph unicode="&#x39;" glyph-name="refresh-39" horiz-adv-x="1274" d="M0 448h128q0-106 40-199t110-161q68-70 161-110t199-40q50 0 99 10t93 28 84 44 74 58l-116 154q-22-24-48-43t-56-33q-30-12-63-19t-67-7q-66 0-124 25t-102 67q-42 44-68 102t-26 124h128l-222 296zM288 818l116-154q22 24 48 43t56 33q30 12 63 19t67 7q66 0 124-25t102-67q42-44 67-102t25-124h-126l222-296 224 296h-128q0 106-40 199t-110 161q-68 70-161 110t-199 40q-50 0-99-10t-93-28-84-44-74-58z" />
<glyph unicode="&#x3a;" glyph-name="delivery-2A" horiz-adv-x="1522" d="M0 94q2-8 7-14t15-6h94q2 4 1 7t3 7q-2 10 0 19t4 19q4 8 6 17t10 17q8 24 28 42t42 32q26 14 52 21t54 7q42 0 80-14t62-40q28-26 40-60t10-74h450q6 16 10 31t12 31q4 14 12 27t14 25h-456q-6 0-9 3t-5 9l2 28-2 548 2 44q-2 10-7 16t-15 6h-240q-10 0-15-6t-7-16l2-40-2-14-100-302-142-70h2q-8-2-10-7t-4-11l2-26zM176 74q2-28 12-53t30-45q18-18 44-29t52-11q32 0 56 11t46 29q16 20 28 45t10 53q2 30-10 55t-28 43q-22 18-46 29t-56 11q-26 0-52-11t-44-29q-20-18-30-43t-12-55zM220 464l74 226h180l-2-226h-252zM240 74q-2 16 5 30t15 24q14 10 26 16t30 6q14 0 29-6t23-16q12-10 17-24t7-30q-2-16-7-29t-17-23q-8-10-23-16t-29-6q-18 0-30 6t-26 16q-8 10-15 23t-5 29zM608 922l2-630q-2-16 9-27t17-11h840q22 0 36 11t12 27l2 630q-2 16-14 27t-38 11h-826q-18 0-28-11t-12-27zM794 608l182 182-2-110h364l-2-144h-362l2-110zM1024 74q2-28 12-53t32-45q16-18 42-29t54-11q30 0 55 11t45 29q18 20 30 45t10 53q2 30-10 55t-30 43q-20 18-45 29t-55 11q-28 0-54-11t-42-29q-22-18-32-43t-12-55zM1090 74q-2 16 5 30t15 24q12 10 25 16t31 6q14 0 29-6t23-16q12-10 17-24t7-30q-2-16-7-29t-17-23q-8-10-23-16t-29-6q-18 0-31 6t-25 16q-8 10-15 23t-5 29zM1316 188q10-12 16-25t14-27q2-16 6-31t2-31h18l130 32q10 2 16 7t8 15l-2 38q2 8-6 15t-14 7h-188z" />
<glyph unicode="&#x3b;" glyph-name="delivery-3b" horiz-adv-x="1522" d="M0 128v38q0 8 6 15t16 7h186q-10-12-17-25t-11-27q-6-16-8-31t-2-31h-16l-132 32q-10 2-16 7t-6 15zM0 292q0-16 13-27t35-11h840q8 0 18 11t10 27v630q0 16-11 27t-27 11h-830q-22 0-35-11t-13-27v-630zM88 470v274h148v-20h-124v-106h108v-20h-108v-128h-24zM220 74q0-28 11-53t29-45q20-18 45-29t55-11q28 0 54 11t44 29q18 20 29 45t11 53q0 30-11 55t-29 43-44 29-54 11q-30 0-55-11t-45-29q-18-18-29-43t-11-55zM276 470v274h80q18 0 32-5t24-15 15-24 5-32q0-12-3-21t-7-17q-6-10-13-16t-17-10q10-4 18-9t12-15q4-8 7-18t3-22v-38t2-12q0-4 2-8t6-8v-4h-24q-2 2-4 7t-4 11q0 6-1 13t-1 13v26q0 12-3 22t-9 16q-6 8-15 12t-19 4h-62v-124h-24zM284 74q0 16 6 30t16 24 24 16 30 6 29-6 25-16q10-10 16-24t6-30-6-29-16-23q-12-10-25-16t-29-6-30 6-24 16-16 23-6 29zM300 612h52q16 0 26 4t18 12q6 8 9 18t3 22q0 14-3 24t-9 18q-6 6-17 10t-23 4h-56v-112zM492 470v274h144v-20h-122v-102h108v-20h-108v-114h124v-18h-146zM516 188q10-12 17-25t13-27q6-16 11-31t7-31h452q-4 40 10 74t40 60 63 40 79 14q28 0 55-7t51-21q22-14 41-32t31-42q4-8 8-17t6-17q2-10 4-19t2-19q0-4 1-7t1-7h96q8 0 13 6t5 14v256l2 26q0 6-4 11t-8 7l-140 70-102 302v54q0 10-6 16t-14 6h-242q-10 0-16-6t-6-16v-620q0-6-3-9t-9-3h-458zM680 470v274h146v-20h-124v-102h108v-20h-108v-114h124v-18h-146zM1052 464v226h178l74-226h-252zM1068 74q0-28 11-53t31-45q18-18 44-29t54-11q30 0 55 11t45 29q18 20 29 45t11 53q0 30-11 55t-29 43q-20 18-45 29t-55 11q-28 0-54-11t-44-29q-20-18-31-43t-11-55zM1132 74q0 16 6 30t16 24q12 10 25 16t29 6 30-6 24-16 16-24 6-30-6-29-16-23-24-16-30-6-29 6-25 16q-10 10-16 23t-6 29z" />
<glyph unicode="&#x40;" glyph-name="delivery-40" horiz-adv-x="1528" d="M0 128v38q0 10 6 16t16 6h186q-10-12-17-25t-11-27q-6-14-9-29t-3-31h-14l-132 30q-10 4-16 9t-6 13zM0 292q0-16 13-27t35-11h822q8 0 18 11t10 27v628q0 16-11 27t-27 11h-812q-22 0-35-11t-13-27v-628zM220 76q0-30 11-55t29-43q20-18 45-29t53-11q30 0 55 11t45 29q18 18 29 43t11 55q0 28-11 53t-29 43q-20 20-45 31t-55 11q-28 0-53-11t-45-31q-18-18-29-43t-11-53zM282 76q0 14 6 28t16 24q12 10 26 16t28 6q16 0 30-6t24-16 16-24 6-28q0-16-6-30t-16-24-24-16-30-6q-14 0-28 6t-26 16q-10 10-16 24t-6 30zM516 188q8-12 15-25t13-27 11-29 9-31h434q-4 38 9 72t39 60 63 41 81 15q28 0 54-8t50-22q24-12 42-31t30-43l8-16t6-18q2-8 4-18t2-20q0-2 1-6t1-6h122q8 0 14 5t6 13v282q0 6-3 11t-9 7l-166 70-102 300v56q0 8-6 14t-14 6h-242q-8 0-14-6t-6-14v-620q0-4-3-8t-9-4h-440zM1032 464v226h178l76-226h-254zM1050 76q0-30 11-55t29-43q20-18 45-29t55-11q28 0 53 11t45 29q18 18 29 43t11 55q0 28-11 53t-29 43q-20 20-45 31t-53 11q-30 0-55-11t-45-31q-18-18-29-43t-11-53zM1114 76q0 14 6 28t16 24 24 16 30 6 29-6 25-16q10-10 16-24t6-28q0-16-6-30t-16-24q-12-10-25-16t-29-6-30 6-24 16-16 24-6 30z" />
<glyph unicode="&#x4c;" glyph-name="tlg-search" d="M0 544q0-86 33-162t89-132 132-89 162-33q32 0 64 5t60 15q30 8 58 22t52 30l244-244q12-10 25-15t25-5q14 0 27 5t23 15l10 10q10 10 15 23t5 27q0 12-5 25t-15 25l-244 244q16 24 30 52t22 58q10 28 15 60t5 64q0 86-33 162t-89 132-132 89-162 33-162-33-132-89-89-132-33-162zM154 544q0 54 20 102t56 84 84 56 102 20 102-20 84-56 56-84 20-102-20-102-56-84-84-56-102-20-102 20-84 56-56 84-20 102z" />
<glyph unicode="&#xe600;" glyph-name="mm-box" horiz-adv-x="1194" d="M1147.068 685.562l-85.144 34.062 57.654 33.046c14.326 8.040 22.076 24.276 19.738 40.512-2.378 16.264-14.36 29.466-30.416 33.26l-344.316 81.712c-8.48 1.86-17.376 1.128-25.414-2.5l-110.624-48.73-84.514 55.612c-9.32 6.142-20.862 8.182-31.698 5.486l-421.738-104.638c-14.778-3.654-26.332-15.534-29.542-30.41-3.216-14.88 2.27-30.308 14.142-39.882l69.382-55.344-102.676-84.154c-10.534-8.558-15.946-21.82-14.448-35.208 1.36-13.418 9.318-25.298 21.35-31.476l119.364-61.704v-254.378c0-13.938 7.162-26.802 19.010-34.144l350.754-217.086c6.428-3.87 13.712-5.984 21.014-5.984 7.39 0 14.626 2.114 21.13 5.984l413.092 255.168c11.846 7.418 19.154 20.288 19.004 34.278l-0.364 269.582 141.108 85.384c13.006 7.904 20.468 22.372 19.23 37.584-1.248 15.202-11.008 28.298-25.078 33.968zM139.692 580.21l92.046 75.548 271.432-111.414-116.068-92.194-247.412 128.060zM625.18 769.818l246.432-62.62-313.98-127.322-247.412 101.434 314.96 88.508zM947.39 680.366c2.528-1.748 95.198-39.334 95.198-39.334l-296.684-179.408-126.75 85.538 328.238 133.202zM759.24 826.956l232.6-55.202c0 0-45.214-26.652-46.888-28.038l-237.504 60.398 51.79 22.842zM514.5 835.94l44.45-29.208-322.238-90.606c-1.166 1.052-47.936 39.032-47.936 39.032l325.722 80.784zM248.408 463.818l129.34-67.056c3.944-1.93 8.144-3 12.38-3 5.892 0 11.74 2.014 16.57 5.85l124.22 98.594v-429.964l-282.512 174.884v220.692zM584.218 66.378v439.906l145.92-98.638c4.51-2.982 9.76-4.594 14.954-4.594 4.754 0 9.582 1.276 13.782 3.802l172.77 104.62 0.366-230.164-347.792-214.936z" />
<glyph unicode="&#xe601;" glyph-name="mm-euro" horiz-adv-x="992" d="M928.192 22.534c-55.006-30.52-147.306-61.32-264.374-61.32-143.812 0-271.546 45.206-360.35 130.008-67.406 61.21-111.954 146.058-127.942 251.232h-110.046v71.468h101.198v22c0 23.384 1.884 45.286 3.534 65.764h-104.734v72.992h117.212c21.308 102.23 74.526 186.9 145.458 246.738 90.712 77.49 206.056 121.298 351.592 121.298 104.736 0 186.48-24.732 236.26-46.76l-35.65-96.372c-44.542 21.83-118.824 40.906-198.962 40.906-95.826 0-173.78-27.736-234.318-80.32-53.096-42.31-88.736-108.044-106.466-185.492h495.202v-72.994h-511.034c-1.942-19-3.736-40.958-3.736-61.39v-26.376h514.768v-71.468h-502.218c14.224-84.672 49.572-147.482 97.704-191.398 65.56-56.89 154.264-84.668 250.094-84.668 94.184 0 175.808 29.134 216.694 48.096l30.114-91.942z" />
<glyph unicode="&#xe602;" glyph-name="mm-medall" horiz-adv-x="1194" d="M961.778 649.226c48.394 66.356 64.686 158.832 37.638 225.176-18.856 43.278-54.884 68.728-99.184 68.728-81.116 0-140.226-104.022-158.192-177.592h-94.226c-9.062 0-18.082-4.16-24.678-10.692l-439.454-439.518c-13.896-13.116-13.896-35.11 0-48.304l306.66-306.904c13.090-13.986 36.010-13.986 49.164 0l439.454 439.494c6.596 6.596 10.662 15.616 10.662 24.548v184.216c0 8.954-4.066 17.952-10.662 24.546l-17.182 16.298zM763.424 538.76c5.672-11.46 18.788-16.362 30.312-11.46 3.206 0.832 6.466 3.258 8.134 5.764 4.928-17.196 1.626-36.076-11.396-49.010-19.75-18.888-50.894-18.888-69.77 0-19.66 18.662-19.66 49.866 0 69.49 9.082 8.932 20.542 13.95 32.866 13.95 4.86-16.504 9.852-27.106 9.852-28.734zM919.942 438.112c-135.23-135.126-269.756-270.060-405.024-404.324-37.664 37.664-219.718 219.408-257.424 257.088 42.588 42.424 386.096 387.096 405.076 405.116h78.674c-2.504-30.378-0.832-59.020 2.428-82.682-21.344-2.488-41-11.586-55.788-27.138-37.702-37.548-37.702-98.082 0-134.992 36.932-36.838 97.616-36.838 134.526 0 37.612 36.908 37.612 97.442 0 134.99-8.222 9.148-18.918 15.552-30.332 20.606-4.904 24.524-8.204 55.602-4.16 89.216h29.564c34.446-33.61 68.102-67.986 102.458-102.366v-155.516zM911.742 700.018l-54.976 54.83c-6.528 6.534-15.53 10.692-24.498 10.692h-18.078c16.424 50.676 53.316 108.038 86.042 108.038 10.692 0 25.384-2.462 35.3-26.254 14.718-36.784 8.16-99.034-23.788-147.308zM532.14 508.476c-8.996 9.020-23.714 9.020-32.838 0-8.96-9.024-8.96-23.754 0-32.712 9.124-8.972 23.844-8.972 32.838 0 8.992 8.956 8.992 23.69 0 32.712zM573.11 467.538c-8.968 9.020-23.776 9.020-32.744 0-9.024-8.906-9.024-23.664 0-32.714 8.968-8.968 23.776-8.968 32.744 0 9.024 9.052 9.024 23.808 0 32.714zM614.112 426.606c-9.060 9.106-23.776 9.106-32.812 0-8.954-8.904-8.954-23.628 0-32.726 9.038-8.958 23.754-8.958 32.812 0 9.024 9.098 9.024 23.818 0 32.726zM655.112 385.652c-8.958 9.19-23.754 9.19-32.774 0-9.024-8.954-9.024-23.582 0-32.644 9.020-9.038 23.816-9.038 32.774 0 9 9.060 9 23.688 0 32.644zM696.15 344.778c-9.826 9.090-23.79 9.090-32.808 0-9.060-8.968-9.060-23.716 0-32.682 9.018-9.112 22.982-9.112 32.808 0 8.982 8.966 8.982 23.712 0 32.682zM703.506 303.87c-9.020-9.060-9.020-23.65 0-32.778 9.856-8.994 23.754-8.994 32.774 0 9.058 9.126 9.058 23.716 0 32.778-9.024 9.020-22.92 9.020-32.774 0z" />
<glyph unicode="&#xe603;" glyph-name="mm-storage" horiz-adv-x="1058" d="M912.482 903.374c-4.15 14.944-18.276 24.928-33.286 24.928h-704.054c-14.972 0-29.154-9.984-33.332-24.928l-118.796-376.686v-527.144c0-18.986 15.806-34.792 34.876-34.792h938.59c19.076 0 34.832 15.806 34.832 34.792v527.144l-118.828 376.686zM853.524 857.798c10.78-33.28 73.14-227.52 98.894-307.096h-257.71l-30.73 307.096h189.548zM550.87 857.798h66.456c5.85-58.956 26.634-268.886 30.812-307.096h-97.266v307.096zM436.982 857.798h66.468v-307.096h-97.25c4.098 38.21 24.962 248.14 30.782 307.096zM200.82 857.798h189.574l-30.696-307.096h-256.86c24.96 79.576 87.236 273.816 97.984 307.096zM961.57 35.3h-868.802v468.052h868.804v-468.052zM512.578 298.284h351.726c30.75 0 30.75 47.352 0 47.352h-351.726c-30.702 0-30.702-47.352 0-47.352zM512.578 210.35h322.588c30.812 0 30.812 47.366 0 47.366h-322.588c-30.702 0.002-30.702-47.366 0-47.366zM512.578 123.284h219.564c31.524 0 31.524 46.452 0 46.452h-219.564c-30.702-0.002-30.702-46.452 0-46.452z" />
<glyph unicode="&#xe604;" glyph-name="camera" d="M304 352c0-114.876 93.124-208 208-208s208 93.124 208 208-93.124 208-208 208-208-93.124-208-208zM960 704h-224c-16 64-32 128-96 128h-256c-64 0-80-64-96-128h-224c-35.2 0-64-28.8-64-64v-576c0-35.2 28.8-64 64-64h896c35.2 0 64 28.8 64 64v576c0 35.2-28.8 64-64 64zM512 68c-156.85 0-284 127.148-284 284s127.15 284 284 284c156.852 0 284-127.15 284-284s-127.146-284-284-284zM960 512h-128v64h128v-64z" />
<glyph unicode="&#xe605;" glyph-name="cart" d="M128 32c0 53.020 42.98 96 96 96s96-42.98 96-96c0-53.020-42.98-96-96-96s-96 42.98-96 96zM768 32c0 53.020 42.98 96 96 96s96-42.98 96-96c0-53.020-42.98-96-96-96s-96 42.98-96 96zM960 448v384h-832c0 70.692-57.306 128-128 128v-64c35.29 0 64-28.71 64-64l48.074-412.054c-29.294-23.458-48.074-59.5-48.074-99.946 0-70.694 57.308-128 128-128h768v64h-768c-35.346 0-64 28.654-64 64 0 0.22 0.014 0.436 0.016 0.656l831.984 127.344z" />
<glyph unicode="&#xe607;" glyph-name="mobile" d="M736 960h-448c-52.8 0-96-43.2-96-96v-832c0-52.8 43.2-96 96-96h448c52.8 0 96 43.2 96 96v832c0 52.8-43.2 96-96 96zM384 912h256v-32h-256v32zM512 0c-35.346 0-64 28.654-64 64s28.654 64 64 64 64-28.654 64-64-28.654-64-64-64zM768 192h-512v640h512v-640z" />
<glyph unicode="&#xe608;" glyph-name="user" d="M622.826 257.264c-22.11 3.518-22.614 64.314-22.614 64.314s64.968 64.316 79.128 150.802c38.090 0 61.618 91.946 23.522 124.296 1.59 34.054 48.96 267.324-190.862 267.324s-192.45-233.27-190.864-267.324c-38.094-32.35-14.57-124.296 23.522-124.296 14.158-86.486 79.128-150.802 79.128-150.802s-0.504-60.796-22.614-64.314c-71.22-11.332-337.172-128.634-337.172-257.264h896c0 128.63-265.952 245.932-337.174 257.264z" />
<glyph unicode="&#xe609;" glyph-name="user2" d="M256 640c0 141.384 114.616 256 256 256s256-114.616 256-256c0-141.384-114.616-256-256-256s-256 114.616-256 256zM768 320h-512c-141.384 0-256-114.618-256-256v-64h1024v64c0 141.382-114.616 256-256 256z" />
<glyph unicode="&#xe60a;" glyph-name="user3" d="M320 768c0 106.038 85.962 192 192 192s192-85.962 192-192c0-106.038-85.962-192-192-192s-192 85.962-192 192zM768.078 512h-35.424l-199.104-404.244 74.45 372.244-96 96-96-96 74.45-372.244-199.102 404.244h-35.424c-127.924 0-127.924-85.986-127.924-192v-320h768v320c0 106.014 0 192-127.922 192z" />
<glyph unicode="&#xe60b;" glyph-name="search" d="M992.262 88.604l-242.552 206.294c-25.074 22.566-51.89 32.926-73.552 31.926 57.256 67.068 91.842 154.078 91.842 249.176 0 212.078-171.922 384-384 384s-384-171.922-384-384c0-212.078 171.922-384 384-384 95.098 0 182.108 34.586 249.176 91.844-1-21.662 9.36-48.478 31.926-73.552l206.294-242.552c35.322-39.246 93.022-42.554 128.22-7.356s31.892 92.898-7.354 128.22zM384 320c-141.384 0-256 114.616-256 256s114.616 256 256 256 256-114.616 256-256-114.614-256-256-256z" />
<glyph unicode="&#xe60c;" glyph-name="lock" d="M592 512h-16v192c0 105.87-86.13 192-192 192h-128c-105.87 0-192-86.13-192-192v-192h-16c-26.4 0-48-21.6-48-48v-480c0-26.4 21.6-48 48-48h544c26.4 0 48 21.6 48 48v480c0 26.4-21.6 48-48 48zM384 64h-128l27.84 139.2c-16.808 11.532-27.84 30.874-27.84 52.8 0 35.346 28.654 64 64 64s64-28.654 64-64c0-21.926-11.032-41.268-27.84-52.8l27.84-139.2zM448 512h-256v192c0 35.29 28.71 64 64 64h128c35.29 0 64-28.71 64-64v-192z" />
<glyph unicode="&#xe60d;" glyph-name="truck" d="M1024 384l-128 256h-192v128c0 35.2-28.8 64-64 64h-576c-35.2 0-64-28.8-64-64v-512l64-64h81.166c-10.898-18.832-17.166-40.678-17.166-64 0-70.692 57.308-128 128-128s128 57.308 128 128c0 23.322-6.268 45.168-17.166 64h354.334c-10.898-18.832-17.168-40.678-17.168-64 0-70.692 57.308-128 128-128s128 57.308 128 128c0 23.322-6.27 45.168-17.168 64h81.168v192zM704 384v160h132.668l80-160h-212.668z" />
<glyph unicode="&#xe611;" glyph-name="facebook2" d="M853.344 960h-682.66c-93.872 0-170.684-76.814-170.684-170.688v-682.626c0-93.938 76.812-170.686 170.684-170.686l682.66 0.002c93.876 0 170.656 76.746 170.656 170.688v682.622c0 93.874-76.782 170.688-170.656 170.688zM870.592 448h-166.592v-448h-192v448h-92.526v146.564h92.526v95.186c0 129.342 55.792 206.25 207.87 206.25h175.244v-158.57h-143.13c-42.482 0.070-47.752-22.152-47.752-63.512l-0.232-79.354h192l-25.408-146.564z" />
<glyph unicode="&#xe613;" glyph-name="twitter" d="M1024 765.582c-37.676-16.708-78.164-28.002-120.66-33.080 43.372 26 76.686 67.17 92.372 116.23-40.596-24.078-85.556-41.56-133.41-50.98-38.32 40.83-92.922 66.34-153.346 66.34-116.022 0-210.088-94.058-210.088-210.078 0-16.466 1.858-32.5 5.44-47.878-174.6 8.764-329.402 92.4-433.018 219.506-18.084-31.028-28.446-67.116-28.446-105.618 0-72.888 37.088-137.192 93.46-174.866-34.438 1.092-66.832 10.542-95.154 26.278-0.020-0.876-0.020-1.756-0.020-2.642 0-101.788 72.418-186.696 168.522-206-17.626-4.8-36.188-7.372-55.348-7.372-13.538 0-26.698 1.32-39.528 3.772 26.736-83.46 104.32-144.206 196.252-145.896-71.9-56.35-162.486-89.934-260.916-89.934-16.958 0-33.68 0.994-50.116 2.94 92.972-59.61 203.402-94.394 322.042-94.394 386.422 0 597.736 320.124 597.736 597.744 0 9.108-0.206 18.168-0.61 27.18 41.056 29.62 76.672 66.62 104.836 108.748z" />
<glyph unicode="&#xe614;" glyph-name="twitter2" d="M853.342 960h-682.656c-93.874 0-170.686-76.81-170.686-170.69v-682.622c0-93.938 76.812-170.688 170.686-170.688h682.656c93.876 0 170.658 76.75 170.658 170.69v682.62c0 93.88-76.782 170.69-170.658 170.69zM838.052 618.166c0.328-7.342 0.49-14.728 0.49-22.148 0-226.214-169.216-487.068-478.658-487.068-95.004 0-183.434 28.348-257.886 76.918 13.16-1.588 26.552-2.394 40.13-2.394 78.822 0 151.358 27.37 208.934 73.282-73.616 1.38-135.744 50.876-157.154 118.882 10.274-2 20.812-3.074 31.652-3.074 15.344 0 30.206 2.096 44.32 6.008-76.96 15.732-134.95 84.916-134.95 167.856 0 0.722 0 1.438 0.016 2.152 22.68-12.82 48.624-20.52 76.2-21.41-45.142 30.698-74.842 83.092-74.842 142.488 0 31.37 8.294 60.778 22.778 86.058 82.974-103.57 206.936-171.72 346.754-178.862-2.87 12.532-4.358 25.596-4.358 39.014 0 94.538 75.326 171.18 168.23 171.18 48.39 0 92.118-20.786 122.802-54.058 38.32 7.676 74.324 21.92 106.832 41.542-12.562-39.976-39.234-73.522-73.966-94.71 34.026 4.138 66.452 13.34 96.62 26.954-22.546-34.324-51.070-64.476-83.944-88.61z" />
<glyph unicode="&#xe615;" glyph-name="paypal" d="M880.634 829.226c25.698-12.576 48.094-30.486 64.502-52.482 34.536-46.3 44.236-109.372 28.836-187.466-15.56-79.026-50.416-145.734-101.166-194.044-9.282-9.702-19.222-18.746-29.804-27.080-54.356-42.802-122.998-65.428-198.508-65.428h-240.060l-64.564-302.726h-132.424l10.086 46.3h46.128l64.564 302.726h188.27c180.25 0 330.938 111.078 371.258 299.936 45.722 213.834-107.598 311.038-239.41 311.038h-449.278l-199.064-913.7h152.032l-24.032-110.3h263.66l64.564 302.726h188.27c180.25 0 330.938 111.078 371.258 299.936 33.716 157.68-40.804 251.932-135.118 290.564zM422.344 773.918h129.132c64.592 0 107.602-55.538 88.786-124.956-16.136-69.44-83.386-124.976-150.64-124.976h-123.758l56.48 249.932z" />
<glyph unicode="&#xe616;" glyph-name="paypal2" d="M880.634 829.226c25.698-12.576 48.094-30.486 64.502-52.482 34.536-46.3 44.236-109.372 28.836-187.466-15.56-79.026-50.416-145.734-101.166-194.044-9.282-9.702-19.222-18.746-29.804-27.080-54.356-42.802-122.998-65.428-198.508-65.428h-240.060l-64.564-302.726h-132.424l10.086 46.3h46.128l64.564 302.726h188.27c180.25 0 330.938 111.078 371.258 299.936 45.722 213.834-107.598 311.038-239.41 311.038h-449.278l-199.064-913.7h152.032l-24.032-110.3h263.66l64.564 302.726h188.27c180.25 0 330.938 111.078 371.258 299.936 33.716 157.68-40.804 251.932-135.118 290.564zM640.262 648.962c-13.724-59.060-64.428-108.040-120.656-121.368l30.738 136.022h92.986c-0.728-4.806-1.722-9.69-3.068-14.654zM422.344 773.918h129.132c36.76 0 66.508-18.004 81.87-46.3h-134.154l-46.016-203.63h-87.312l56.48 249.93z" />
<glyph unicode="&#xe617;" glyph-name="paypal3" d="M648.342 896c28.332 0 56.918-5.804 82.666-16.784 27.084-11.548 49.324-27.924 66.104-48.672 33.598-41.542 43.038-98.132 28.050-168.218-16.306-76.378-54.398-139.96-110.16-183.87-54.356-42.802-122.998-65.428-198.508-65.428h-240.060l-64.564-302.728h-132.424l171.176 785.7h397.72zM285.786 459.986h203.836c47.436 0 95.494 18.17 135.318 51.164 38.82 32.162 66.274 75.522 77.396 122.2 13.902 52.524 4.63 105.152-25.514 144.554-29.176 38.14-74.864 60.014-125.346 60.014h-180.282l-85.408-377.932zM648.342 960h-449.278l-199.064-913.7h152.032l-24.032-110.3h263.66l64.564 302.726h188.27c180.25 0 330.938 111.078 371.258 299.936 33.716 157.68-40.804 251.932-135.118 290.564 25.698-12.576 48.094-30.486 64.502-52.482 34.536-46.3 44.236-109.372 28.836-187.466-15.56-79.026-50.416-145.734-101.166-194.044-9.282-9.702-19.222-18.746-29.804-27.080-54.356-42.802-122.998-65.428-198.508-65.428h-240.060l-64.564-302.726h-132.424l10.086 46.3h46.128l64.564 302.726h188.27c180.25 0 330.938 111.078 371.258 299.936 45.722 213.834-107.598 311.038-239.41 311.038v0zM365.864 523.986l56.482 249.932h129.132c64.592 0 107.602-55.538 88.786-124.956-16.136-69.44-83.386-124.976-150.64-124.976h-123.76z" />
<glyph unicode="&#xe618;" glyph-name="safari" d="M512 896c-24.064 0-47.708-1.792-70.824-5.212-0.3 0.782-0.624 1.548-0.982 2.296 12.826 10.002 19.55 23.83 16.634 37.552-3.734 17.564-22.394 29.364-46.434 29.364-5.18 0-10.458-0.562-15.68-1.672-30.168-6.414-50.146-28.622-45.482-50.562 2.834-13.338 14.292-23.338 30.164-27.384-0.032-0.972-0.016-1.95 0.042-2.934-200.622-57.53-347.438-242.338-347.438-461.448 0-265.098 214.904-480 480-480s480 214.902 480 480c0 265.096-214.902 480-480 480zM364.882 911.092c-2.706 12.726 12.48 27.19 33.158 31.584 4.132 0.878 8.29 1.324 12.354 1.324 16.036 0 28.694-6.864 30.784-16.69 1.596-7.51-3.070-15.61-11.386-21.904-7.034 4.966-16.016 7.126-25.1 5.196-9.044-1.922-16.348-7.508-20.758-14.856-10.184 2.45-17.508 8.084-19.052 15.346zM769.386 158.614c-43.968-43.968-97.21-75.278-155.31-92.154l-42.396 68.768-10.746-79.958c-16.090-2.152-32.426-3.27-48.934-3.27-97.228 0-188.636 37.864-257.386 106.614-43.968 43.966-75.278 97.21-92.154 155.308l68.768 42.398-79.96 10.746c-2.15 16.090-3.268 32.426-3.268 48.934 0 97.228 37.862 188.636 106.614 257.386 43.968 43.968 97.212 75.278 155.31 92.156l42.396-68.77 10.748 79.96c16.088 2.15 32.424 3.268 48.932 3.268 97.228 0 188.636-37.862 257.386-106.614 43.968-43.968 75.278-97.212 92.154-155.31l-68.77-42.398 79.96-10.746c2.152-16.088 3.27-32.424 3.27-48.932 0-97.228-37.864-188.636-106.614-257.386zM760.902 664.902l-196.978-149.704c-14.644 7.658-30.876 12.062-47.416 12.726l-51.080 107.18-3.068-118.664c-13.284-6.536-25.104-15.664-34.876-26.95l-63.088 22.364 46.092-48.538c-6.334-13.518-9.866-28.030-10.434-42.824l-107.158-51.066 118.738-3.068c0.38-0.768 0.774-1.526 1.17-2.282l-149.704-196.98 196.978 149.704c14.644-7.656 30.874-12.060 47.416-12.724l51.080-107.182 3.066 118.664c13.286 6.538 25.106 15.664 34.878 26.952l63.090-22.368-46.094 48.54c6.336 13.52 9.868 28.030 10.436 42.824l107.156 51.066-118.736 3.070c-0.378 0.766-0.774 1.524-1.17 2.28l149.702 196.98zM512.102 515.466v0zM492.042 509.902c6.726 1.43 13.444 2.118 20.056 2.118 4.144 0 8.25-0.27 12.294-0.796l0.092-0.032-0.010 0.022c8.732-1.144 17.176-3.5 25.132-6.896l-71.546-54.376-54.38-71.552c-2.376 5.594-4.27 11.484-5.58 17.652-11.026 51.86 22.080 102.836 73.942 113.86zM562.12 334.116v0 0c-9.056-5.544-19.182-9.684-30.16-12.018-6.726-1.43-13.444-2.118-20.054-2.118-4.15 0-8.258 0.272-12.308 0.798l-0.068 0.010c-8.734 1.142-17.174 3.5-25.132 6.894l71.544 54.376 54.38 71.554c2.376-5.594 4.27-11.486 5.58-17.654 8.69-40.882-10.056-81.2-43.782-101.842z" />
<glyph unicode="&#xe619;" glyph-name="envelope" d="M959.998 832h-895.998c-35.342 0-64-28.624-64-64v-640c0-35.376 28.658-64 64-64h895.998c35.344 0 64.002 28.624 64.002 64v640c0 35.376-28.658 64-64.002 64zM832 704l-320-256-320 256h640zM896 192h-768v448l384-320 384 320v-448z" />
<glyph unicode="&#xe61a;" glyph-name="truck2" d="M794.624 593.76c-5.952 8.896-15.936 14.24-26.624 14.24h-32c-17.696 0-32-14.304-32-32v-192c0-17.696 14.304-32 32-32h128c17.696 0 32 14.304 32 32v48c0 6.304-1.888 12.512-5.376 17.76l-96 144zM864 384h-128v192h32l96-144v-48zM1007.872 469.248l-128 192c-17.856 26.784-47.744 42.752-79.872 42.752h-128v64c0 52.928-43.072 96-96 96h-480c-52.928 0-96-43.072-96-96v-352c0-52.928 43.072-96 96-96v0-96c0-52.928 43.072-96 96-96h36.544c14.304-55.072 64-96 123.488-96 59.424 0 109.12 40.928 123.424 96h169.024c14.304-55.072 64-96 123.488-96 59.424 0 109.12 40.928 123.424 96h36.608c52.928 0 96 43.072 96 96v192c0 19.008-5.568 37.44-16.128 53.248zM96 384c-17.664 0-32 14.304-32 32v352c0 17.696 14.336 32 32 32h480c17.696 0 32-14.304 32-32v-352c0-17.696-14.304-32-32-32h-480zM352.032 96c-35.36 0-64 28.672-64 64s28.64 64 64 64c35.328 0 64-28.672 64-64s-28.704-64-64-64zM768 96c-35.36 0-64 28.672-64 64s28.64 64 64 64c35.328 0 64-28.672 64-64s-28.672-64-64-64zM960 224c0-17.696-14.304-32-32-32h-36.576c-14.304 55.072-64 96-123.424 96-59.488 0-109.184-40.928-123.488-96h-169.024c-14.304 55.072-64 96-123.424 96-59.488 0-109.184-40.928-123.488-96h-36.576c-17.664 0-32 14.304-32 32v96h416c52.928 0 96 43.072 96 96v224h128c10.688 0 20.672-5.344 26.624-14.24l128-192c3.488-5.248 5.376-11.456 5.376-17.76v-192z" />
<glyph unicode="&#xe61b;" glyph-name="user4" d="M758.784 233.062c-126.208 45.978-166.554 84.788-166.554 167.884 0 49.87 38.554 33.586 55.45 124.928 7.014 37.888 41.062 0.614 47.616 87.090 0 34.458-18.586 43.058-18.586 43.058s9.472 51.046 13.158 90.266c4.506 48.948-28.262 175.308-203.468 175.308-175.156 0-208.026-126.362-203.418-175.308 3.686-39.22 13.158-90.266 13.158-90.266s-18.638-8.55-18.638-43.058c6.502-86.476 40.55-49.202 47.564-87.090 16.948-91.342 55.5-75.060 55.5-124.928 0-83.098-40.346-121.908-166.554-167.884-126.668-46.080-208.896-93.134-208.896-125.236 0-32.052 0-107.776 0-107.776h962.56c0 0 0 75.726 0 107.776s-82.278 79.104-208.896 125.236z" />
<glyph unicode="&#xe61d;" glyph-name="mm-store" horiz-adv-x="1058" d="M754.254 893.886l-742.28-209.674 4.504-492.254 297.77-189.842 718.914 303.246 3.028 479.764-281.938 108.762zM42.784 214.024l-3.804 420.312 238.99-103.134 3.36-481.006-238.546 163.828zM99.632 680.846l648.366 185.174 199.634-74.72-630.682-203.114-217.314 92.662zM907.578 288.634l-2.876 251.374-378.734-124.738-2.884-291.144-181.068-77.472 3.47 484.55 659.248 217.314 3.414-416.854-100.568-43.028z" />
<glyph unicode="&#xe620;" glyph-name="phone" d="M736 352c-64-64-64-128-128-128s-128 64-192 128-128 128-128 192 64 64 128 128-128 256-192 256-192-192-192-192c0-128 131.5-387.5 256-512s384-256 512-256c0 0 192 128 192 192s-192 256-256 192z" />
<glyph unicode="&#xe621;" glyph-name="phone2" d="M288 576c64 64 64 128 128 128s128-64 192-128 128-128 128-192-64-64-128-128 128-256 192-256 192 192 192 192c0 128-131.5 387.5-256 512s-384 256-512 256c0 0-192-128-192-192s192-256 256-192z" />
<glyph unicode="&#xe628;" glyph-name="pin" d="M512 960c-212.062 0-384-171.938-384-384s384-640 384-640 384 427.938 384 640-171.938 384-384 384zM512 320c-141.376 0-256 114.624-256 256s114.624 256 256 256 256-114.624 256-256-114.624-256-256-256z" />
<glyph unicode="&#xe629;" glyph-name="pin-alt" d="M512 960c-212.062 0-384-171.938-384-384s384-640 384-640 384 427.938 384 640-171.938 384-384 384zM512 320c-141.376 0-256 114.624-256 256s114.624 256 256 256 256-114.624 256-256-114.624-256-256-256zM512 704c-70.688 0-128-57.312-128-128s57.312-128 128-128 128 57.312 128 128-57.312 128-128 128z" />
<glyph unicode="&#xe62a;" glyph-name="mail" d="M896 800h-768c-70.688 0-128-57.344-128-128v-416c0-70.688 57.312-128 128-128h768c70.688 0 128 57.312 128 128v416c0 70.656-57.312 128-128 128zM64 632l223.968-168-223.968-168v336zM960 256c0-35.328-28.736-64-64-64h-768c-35.296 0-64 28.672-64 64l250.624 188 139.776-104.864c17.056-12.736 37.312-19.2 57.6-19.2 20.256 0 40.512 6.432 57.568 19.2l139.808 104.864 250.624-188zM960 296l-224 168 224 168v-336zM550.368 364.736c-11.168-8.384-24.416-12.8-38.368-12.8s-27.232 4.448-38.4 12.8l-409.6 307.264c0 35.296 28.704 64 64 64h768c35.264 0 64-28.704 64-64l-409.632-307.264z" />
<glyph unicode="&#xe62c;" glyph-name="clip" d="M939.616 811.616c112.512-112.448 112.512-294.816 0-407.264l-350.944-350.976c-12.512-12.544-32.736-12.544-45.248 0-12.576 12.512-12.576 32.704 0 45.248l346.432 346.464c87.488 87.488 87.488 229.248-0.064 316.768-87.36 87.488-229.248 87.488-316.736 0l-462.304-456.864c-62.496-62.464-62.496-163.776 0-226.24 62.496-62.496 163.744-62.496 226.24 0l466.88 461.344c37.44 37.44 37.44 98.336 0 135.776-37.44 37.408-98.304 37.408-135.744 0l-351.008-351.008c-12.512-12.512-32.736-12.512-45.248 0-12.512 12.544-12.512 32.736 0 45.28l350.976 350.976c62.432 62.464 163.744 62.464 226.24 0 62.496-62.496 62.496-163.776 0-226.272l-466.88-461.376c-87.296-87.328-229.408-87.328-316.736 0s-87.328 229.472 0 316.8l466.88 461.344c112.448 112.512 294.816 112.512 407.264 0z" />
<glyph unicode="&#xe62d;" glyph-name="mail2" d="M81.612 702.158c24.986-13.466 371.15-199.372 384.050-206.286 12.85-6.912 29.542-10.24 46.336-10.24 16.846 0 33.536 3.328 46.386 10.29 12.902 6.912 359.014 192.818 384 206.286 25.038 13.414 48.692 55.552 2.764 55.552h-866.254c-45.926 0-22.324-42.138 2.714-55.602zM952.986 599.758c-28.416-14.848-377.19-197.172-394.598-206.286s-29.542-10.292-46.386-10.292c-16.794 0-28.928 1.178-46.336 10.292s-366.234 191.488-394.598 206.286c-20.018 10.444-19.866-1.792-19.866-11.214s0-375.552 0-375.552c0-21.504 28.62-49.152 50.79-49.152h820.070c22.222 0 50.74 27.648 50.74 49.1 0 0 0 366.13 0 375.552 0 9.472 0.206 21.71-19.814 11.264z" />
<glyph unicode="&#xe632;" glyph-name="tools" d="M160.462 620.032c47.82 37.12 87.45 11.572 140.338-49.664 5.99-6.86 13.978 1.178 18.484 5.12 4.506 3.994 74.342 66.764 77.722 69.682 3.43 3.020 7.526 8.654 2.098 14.95s-25.294 32-38.042 48.64c-92.57 121.088 253.236 203.214 200.090 204.494-26.982 0.716-135.476 1.946-151.654 0.256-65.69-6.962-148.174-68.352-189.696-96.922-54.272-37.324-74.598-58.982-77.926-62.002-15.36-13.466-2.458-44.39-30.31-68.812-29.44-25.804-47.77-6.298-64.82-21.248-8.5-7.476-32.102-25.14-38.912-31.13-6.758-5.938-7.988-16.026-1.076-24.116 0 0 64.666-71.474 70.144-77.772 5.428-6.298 20.018-11.622 29.082-3.634 9.062 7.936 32.308 28.366 36.25 31.846 3.994 3.43-2.56 44.186 18.228 60.314zM452.762 593.614c-6.144 7.116-13.722 7.27-20.326 1.434l-73.472-64.050c-5.734-5.12-6.502-14.542-1.332-20.48l424.654-483.226c9.882-11.47 27.086-12.646 38.502-2.714l49.716 41.574c11.316 9.932 12.494 27.342 2.61 38.758l-420.352 488.704zM1018.982 799.284c-3.788 25.294-16.896 19.968-23.706 9.216-6.706-10.702-36.914-56.372-49.306-77.004-12.288-20.582-42.496-60.978-99.020-21.094-58.778 41.574-38.298 70.606-28.11 90.112 10.292 19.61 41.882 74.496 46.49 81.408 4.506 6.912-0.818 26.982-18.996 18.586-18.278-8.448-129.178-52.53-144.59-115.712-15.718-64.358 13.21-121.806-43.52-178.894l-68.71-71.68 69.018-80.282 84.684 80.436c20.224 20.274 63.284 39.988 102.298 31.13 83.61-18.944 129.178 12.494 156.722 64.358 24.678 46.438 20.582 144.128 16.742 169.42zM140.288 99.788c-10.65-10.752-10.65-28.16 0-38.86l48.692-47.616c10.65-10.702 27.546-6.196 38.194 4.506l251.238 247.040-77.004 87.706-261.12-252.774z" />
<glyph unicode="&#xe639;" glyph-name="cart2" d="M204.8 102.4c0-56.524 45.876-102.4 102.4-102.4 56.576 0 102.4 45.876 102.4 102.4s-45.824 102.4-102.4 102.4c-56.526 0-102.4-45.876-102.4-102.4zM716.8 102.4c0-56.524 45.876-102.4 102.4-102.4 56.576 0 102.4 45.876 102.4 102.4s-45.824 102.4-102.4 102.4c-56.524 0-102.4-45.876-102.4-102.4zM386.406 344.474l566.732 161.894c10.802 3.122 19.662 14.848 19.662 26.112v281.6h-721.92v87.040c0 11.264-9.164 20.48-20.48 20.48h-158.72c-11.264 0-20.48-9.216-20.48-20.48v-81.92h99.482l100.762-463.718 9.728-48.282v-76.8c0-11.264 9.216-20.48 20.428-20.48h670.772c11.212 0 20.428 9.216 20.428 20.48v76.8h-575.898c-58.83 0-60.058 23.040-10.496 37.274z" />
<glyph unicode="&#xe63a;" glyph-name="box" d="M942.080 870.4h-860.16c-16.948 0-30.72-13.774-30.72-30.72v-122.88h921.6v122.88c0 16.948-13.774 30.72-30.72 30.72zM102.4 122.88c0-39.424 32.256-71.68 71.68-71.68h675.84c39.476 0 71.68 32.256 71.68 71.68v542.72h-819.2v-542.72zM358.4 563.2h307.2v-102.4h-307.2v102.4z" />
<glyph unicode="&#xe63b;" glyph-name="warning" d="M999.014 52.122l-456.090 800.308c-6.298 11.060-18.126 17.87-30.926 17.87s-24.576-6.81-30.926-17.87l-456.038-800.308c-6.196-10.854-6.092-24.116 0.256-34.866s18.022-17.356 30.618-17.356h912.128c12.494 0 24.218 6.606 30.618 17.356 6.35 10.752 6.452 24.014 0.358 34.866zM568.32 102.298h-112.64v102.4h112.64v-102.4zM568.32 281.498h-112.64v307.2h112.64v-307.2z" />
<glyph unicode="&#xe63c;" glyph-name="minus2" d="M992.225 433.551c-324.301 0-646.477 0-970.173 0 0 9.646 0 18.432 0 28.503 323.451 0 646.298 0 970.173 0 0-9.549 0-17.802 0-28.503z" />
<glyph unicode="&#xe63d;" glyph-name="arrow-down" d="M792.73 534.374c-20.838-21.402-240.384-230.554-240.384-230.554-11.162-11.418-25.754-17.1-40.346-17.1-14.644 0-29.236 5.682-40.346 17.1 0 0-219.546 209.152-240.436 230.554-20.838 21.402-22.272 59.852 0 82.74 22.324 22.834 53.402 24.626 80.69 0l200.090-191.898 200.038 191.846c27.342 24.628 58.47 22.836 80.692 0 22.322-22.834 20.942-61.338 0-82.688z" />
<glyph unicode="&#xe63e;" glyph-name="arrow-up" d="M792.73 387.226c-20.838 21.402-240.384 230.502-240.384 230.502-11.162 11.418-25.754 17.152-40.346 17.152-14.644 0-29.236-5.734-40.346-17.152 0 0-219.546-209.102-240.436-230.502-20.838-21.402-22.272-59.904 0-82.74 22.324-22.784 53.402-24.626 80.69 0l200.090 191.846 200.038-191.846c27.342-24.626 58.47-22.784 80.692 0 22.322 22.886 20.942 61.39 0 82.74z" />
<glyph unicode="&#xe63f;" glyph-name="arrow-right" d="M438.426 741.582c21.402-20.89 230.502-240.436 230.502-240.436 11.47-11.162 17.152-25.754 17.152-40.346s-5.682-29.184-17.152-40.346c0 0-209.1-219.546-230.502-240.384-21.402-20.89-59.854-22.322-82.738 0-22.834 22.272-24.628 53.35 0 80.64l191.898 200.090-191.846 200.090c-24.628 27.34-22.834 58.418 0 80.69s61.338 20.89 82.688 0z" />
<glyph unicode="&#xe640;" glyph-name="arrow-left2" d="M634.828 285.798c13.722-13.876 13.722-36.302 0-50.126-13.722-13.876-35.89-13.876-49.614 0l-196.096 200.038c-13.722 13.876-13.722 36.302 0 50.126l196.096 200.090c13.722 13.876 35.89 13.876 49.614 0s13.722-36.25 0-50.126l-160.768-175.002 160.768-175.002z" />
<glyph unicode="&#xe641;" glyph-name="arrow-down2" d="M687.002 583.63c13.876 13.722 36.302 13.722 50.126 0 13.876-13.722 13.876-35.89 0-49.612l-200.038-196.096c-13.876-13.722-36.3-13.722-50.126 0l-200.090 196.096c-13.824 13.722-13.824 35.89 0 49.612 13.876 13.722 36.25 13.722 50.126 0l175.002-160.768 175.002 160.768z" />
<glyph unicode="&#xe642;" glyph-name="arrow-up2" d="M336.948 337.972c-13.876-13.722-36.25-13.722-50.126 0-13.824 13.722-13.876 35.89 0 49.664l200.090 195.994c13.876 13.722 36.302 13.722 50.126 0l200.090-196.046c13.876-13.774 13.876-35.942 0-49.664s-36.25-13.722-50.126 0l-175.052 160.82-175.002-160.768z" />
<glyph unicode="&#xe643;" glyph-name="arrow-right2" d="M389.17 285.798c-13.722-13.876-13.722-36.302 0-50.126 13.67-13.876 35.892-13.876 49.612 0l196.096 200.038c13.722 13.876 13.722 36.302 0 50.126l-196.096 200.090c-13.722 13.876-35.892 13.876-49.612 0s-13.722-36.25-0.050-50.074l160.818-175.054-160.768-175.002z" />
<glyph unicode="&#xe644;" glyph-name="arrow-left3" d="M737.23 80.998c13.722-13.876 13.722-36.25 0-50.126s-35.89-13.876-49.614 0l-400.896 404.838c-13.722 13.876-13.722 36.302 0 50.126l400.896 404.89c13.722 13.876 35.89 13.876 49.614 0s13.722-36.25 0-50.126l-365.568-379.802 365.568-379.802z" />
<glyph unicode="&#xe645;" glyph-name="arrow-down3" d="M132.198 686.028c-13.876 13.722-36.302 13.722-50.126 0-13.824-13.67-13.824-35.892 0-49.614l404.89-400.896c13.876-13.722 36.25-13.722 50.126 0l404.89 400.896c13.824 13.722 13.876 35.89 0 49.612s-36.352 13.722-50.126 0.052l-379.854-365.62-379.802 365.568z" />
<glyph unicode="&#xe646;" glyph-name="arrow-up3" d="M891.802 235.57c13.876-13.722 36.302-13.722 50.126 0 13.876 13.722 13.876 35.89 0 49.614l-404.89 400.896c-13.824 13.722-36.25 13.722-50.074 0l-404.89-400.896c-13.824-13.722-13.876-35.89 0-49.614s36.25-13.722 50.126 0l379.802 365.62 379.802-365.62z" />
<glyph unicode="&#xe647;" glyph-name="uniE647" d="M286.704 80.998c-13.722-13.876-13.722-36.25 0-50.126s35.892-13.876 49.612 0l400.896 404.838c13.722 13.876 13.722 36.302 0 50.126l-400.896 404.89c-13.722 13.876-35.892 13.876-49.612 0s-13.722-36.25 0-50.126l365.568-379.802-365.568-379.802z" />
<glyph unicode="&#xe648;" glyph-name="facebook4" d="M842.24 901.12h-660.48c-60.518 0-110.080-49.562-110.080-110.080v-660.48c0-60.57 49.562-110.028 110.030-110.028h334.030v315.75h-105.472v137.524h105.472v68.916c0 106.24 78.438 189.44 178.586 189.44h97.178v-155.342h-86.99c-22.732 0-29.39-13.056-29.39-31.078v-71.884h116.378v-137.574h-116.378v-315.802h167.066c60.57 0 110.028 49.51 110.028 110.028v660.532c0.102 60.518-49.408 110.080-109.978 110.080z" />
<glyph unicode="&#xe64a;" glyph-name="question" d="M448 256h128v-128h-128zM704 704c35.346 0 64-28.654 64-64v-192l-192-128h-128v64l192 128v64h-320v128h384zM512 864c-111.118 0-215.584-43.272-294.156-121.844s-121.844-183.038-121.844-294.156c0-111.118 43.272-215.584 121.844-294.156s183.038-121.844 294.156-121.844c111.118 0 215.584 43.272 294.156 121.844s121.844 183.038 121.844 294.156c0 111.118-43.272 215.584-121.844 294.156s-183.038 121.844-294.156 121.844zM512 960v0c282.77 0 512-229.23 512-512s-229.23-512-512-512c-282.77 0-512 229.23-512 512s229.23 512 512 512z" />
<glyph unicode="&#xe64b;" glyph-name="info" d="M512 960c-282.77 0-512-229.23-512-512s229.23-512 512-512 512 229.23 512 512-229.23 512-512 512zM512 32c-229.75 0-416 186.25-416 416s186.25 416 416 416 416-186.25 416-416-186.25-416-416-416zM448 704h128v-128h-128zM640 192h-256v64h64v192h-64v64h192v-256h64z" />
<glyph unicode="&#xe64c;" glyph-name="info2" d="M512 960c-282.77 0-512-229.23-512-512s229.23-512 512-512 512 229.23 512 512-229.23 512-512 512zM448 768h128v-128h-128v128zM640 128h-256v64h64v256h-64v64h192v-320h64v-64z" />
<glyph unicode="&#xe64d;" glyph-name="question2" d="M512-64c-282.75 0-512 229.218-512 512 0 282.75 229.25 512 512 512s512-229.25 512-512c0-282.782-229.25-512-512-512zM512 832c-212.062 0-384-171.938-384-384s171.938-384 384-384 384 171.938 384 384-171.938 384-384 384zM512 704c-106.062 0-192-85.968-192-192h128c0 35.344 28.624 64 64 64s64-28.656 64-64-28.624-64-64-64c-2.45 0-10.216 0-32 0-17.688 0-32-14.344-32-32v-96h128v11.75c74.376 26.438 128 96.782 128 180.25 0 106.032-85.938 192-192 192zM512 256h-64v-64h128v64z" />
<glyph unicode="&#xe64e;" glyph-name="uniE64E" d="M721.408 858.418c-58.418 42.138-131.686 63.182-219.956 63.182-67.174 0-123.802-14.848-169.83-44.442-73.062-46.388-111.872-125.132-116.582-236.236h169.266c0 32.358 9.42 63.538 28.314 93.542s50.944 45.004 96.154 45.004c45.926 0 77.62-12.186 94.924-36.506 17.356-24.422 26.010-51.404 26.010-80.998 0-25.754-12.902-49.306-28.466-70.758-8.55-12.494-19.866-23.962-33.842-34.51 0 0-91.802-58.88-132.146-106.19-23.398-27.444-25.498-68.506-27.546-127.438-0.154-4.198 1.434-12.85 16.128-12.85s118.63 0 131.686 0 15.77 9.678 15.974 13.926c0.922 21.452 3.328 32.41 7.27 44.8 7.424 23.398 27.494 43.826 50.126 61.39l46.592 32.154c42.034 32.768 75.622 59.648 90.418 80.742 25.294 34.714 43.058 77.414 43.058 128.050 0 82.688-29.236 145.050-87.552 187.136zM498.738 208.69c-58.368 1.74-106.496-38.606-108.338-101.888-1.844-63.232 43.93-105.010 102.298-106.752 60.928-1.792 107.776 37.274 109.62 100.506 1.792 63.284-42.65 106.342-103.578 108.134z" />
<glyph unicode="&#xe64f;" glyph-name="uniE64F" d="M505.754 931.788c-260.146-3.482-468.224-217.19-464.742-477.338 3.482-259.994 217.19-468.122 477.338-464.64 260.044 3.482 468.174 217.19 464.64 477.338-3.43 260.044-217.14 468.122-477.236 464.64zM504.37 174.080h-2.61c-40.038 1.178-68.3 30.72-67.174 70.194 1.126 38.758 30.054 66.97 68.812 66.97l2.356-0.052c41.164-1.23 69.12-30.464 67.89-71.066-1.126-38.86-29.644-66.048-69.274-66.048zM672.87 508.518c-9.472-13.362-30.158-30.002-56.27-50.33l-28.774-19.866c-15.77-12.288-25.294-23.808-28.826-35.124-2.866-9.010-4.198-11.316-4.454-29.49l-0.052-4.658h-109.722l0.308 9.318c1.332 38.196 2.304 60.62 18.126 79.206 24.832 29.132 79.616 64.41 81.92 65.894 7.834 5.938 14.438 12.646 19.404 19.814 11.52 15.872 16.588 28.416 16.588 40.654 0 17.050-5.068 32.82-15.052 46.848-9.626 13.568-27.904 20.428-54.322 20.428-26.214 0-44.134-8.346-54.886-25.394-11.11-17.562-16.64-35.942-16.64-54.784v-4.71h-113.152l0.204 4.914c2.918 69.326 27.648 119.194 73.522 148.326 28.774 18.586 64.614 27.956 106.394 27.956 54.732 0 101.018-13.312 137.37-39.526 36.864-26.574 55.552-66.406 55.552-118.324 0-29.082-9.164-56.37-27.238-81.152z" />
<glyph unicode="&#xe650;" glyph-name="add" d="M512-64c-282.75 0-512 229.218-512 512s229.25 512 512 512c282.782 0 512-229.218 512-512s-229.218-512-512-512zM512 832c-212.062 0-384-171.938-384-384s171.938-384 384-384c212.094 0 384 171.938 384 384s-171.906 384-384 384zM576 192h-128v192h-192v128h192v192h128v-192h192v-128h-192v-192z" />
<glyph unicode="&#xe652;" glyph-name="plus" d="M819.2 870.4h-614.4c-56.32 0-102.4-46.080-102.4-102.4v-614.4c0-56.32 46.080-102.4 102.4-102.4h614.4c56.32 0 102.4 46.080 102.4 102.4v614.4c0 56.32-46.080 102.4-102.4 102.4zM768 409.6h-204.8v-204.8h-102.4v204.8h-204.8v102.4h204.8v204.8h102.4v-204.8h204.8v-102.4z" />
<glyph unicode="&#xe653;" glyph-name="plus2" d="M512 890.88c-237.568 0-430.080-192.614-430.080-430.080 0-237.568 192.562-430.080 430.080-430.080s430.080 192.562 430.080 430.080c0 237.516-192.562 430.080-430.080 430.080zM564.326 408.474v-206.182h-104.654v206.182h-206.234v104.654h206.182v206.234h104.704v-206.182h206.182v-104.704h-206.182z" />
<glyph unicode="&#xe654;" glyph-name="plus3" d="M778.188 512h-215.040v215.040c0 28.262-22.886 30.72-51.2 30.72-28.262 0-51.2-2.406-51.2-30.72v-215.040h-214.99c-28.314 0-30.72-22.938-30.72-51.2s2.406-51.2 30.72-51.2h214.99v-215.040c0-28.262 22.938-30.72 51.2-30.72 28.314 0 51.2 2.458 51.2 30.72v215.040h215.040c28.314 0 30.77 22.938 30.77 51.2s-2.458 51.2-30.77 51.2z" />
<glyph unicode="&#xe655;" glyph-name="add-to-list" d="M358.4 512h-307.2c-28.262 0-51.2-22.938-51.2-51.2s22.938-51.2 51.2-51.2h307.2c28.262 0 51.2 22.938 51.2 51.2s-22.938 51.2-51.2 51.2zM358.4 307.2h-307.2c-28.262 0-51.2-22.886-51.2-51.2s22.938-51.2 51.2-51.2h307.2c28.262 0 51.2 22.886 51.2 51.2s-22.938 51.2-51.2 51.2zM993.28 512h-174.080v174.080c0 28.262-22.886 30.72-51.2 30.72s-51.2-2.458-51.2-30.72v-174.080h-168.96c-28.314 0-30.72-22.938-30.72-51.2s2.458-51.2 30.77-51.2h168.908v-174.080c0-28.262 22.886-30.72 51.2-30.72s51.2 2.458 51.2 30.72v174.080h174.080c28.262 0 30.72 22.938 30.72 51.2s-2.458 51.2-30.72 51.2zM358.4 716.8h-307.2c-28.262 0-51.2-22.938-51.2-51.2s22.938-51.2 51.2-51.2h307.2c28.262 0 51.2 22.938 51.2 51.2s-22.938 51.2-51.2 51.2z" />
<glyph unicode="&#xe656;" glyph-name="arrow-up-doble" horiz-adv-x="1089" d="M138.795-45.597l414.378 414.444 412.155-412.368c0 0 20.759-12.087 34.043-3.965 13.309 8.134 70.48 68.173 70.48 72.324s3.551 17.989-3.507 27.122c-8.996 11.641-481.335 484.625-492.213 493.181-12.317 9.686-33.074 10.933-41.93 0.83-12.27-13.997-492.948-490.741-494.562-497.471-2.491-10.379-3.598-21.45 3.321-29.752s60.749-67.529 73.757-68.359c16.152-1.030 24.078 4.014 24.078 4.014zM110.337 349.371c-7.231 3.368-71.244 62.72-74.357 76.892-1.364 6.208-0.494 16.736 1.873 20.983 2.063 3.7 497.429 499.389 502.929 502.745 6.080 3.709 19.408 2.486 24.487-0.044 4.758-2.369 492.95-491.321 502.438-501.14 3.66-3.788 2.714-20.646 1.388-25.045-2.593-8.593-59.142-67.732-71.793-73.925-7.738-3.786-13.399-2.985-23.67-0.363-13.997 3.571-420.050 415.135-420.050 415.135s-413.681-412.454-418.525-415.133-21.585-1.565-24.72-0.104z" />
<glyph unicode="&#xe657;" glyph-name="arrow-down-doble" horiz-adv-x="1065" d="M120.448 939.078l411.267-411.332 409.060 409.271c0 0 20.603 11.994 33.788 3.938 13.209-8.073 69.951-67.663 69.951-71.783s3.525-17.854-3.481-26.919c-8.928-11.552-477.721-480.987-488.517-489.477-12.224-9.614-32.825-10.851-41.615-0.824-12.178 13.894-489.247 487.060-490.849 493.736-2.472 10.302-3.571 21.289 3.296 29.529s60.293 67.022 73.203 67.846c16.030 1.024 23.897-3.984 23.897-3.984zM92.204 547.079c-7.177-3.344-70.709-62.251-73.798-76.317-1.354-6.162-0.49-16.61 1.859-20.825 2.046-3.672 493.692-495.639 499.151-498.968 6.034-3.681 19.263-2.468 24.304 0.044 4.722 2.351 489.249 487.632 498.665 497.377 3.632 3.76 2.694 20.491 1.378 24.855-2.573 8.53-58.698 67.226-71.254 73.37-7.68 3.758-13.299 2.962-23.493 0.363-13.892-3.544-416.896-412.018-416.896-412.018s-410.572 409.359-415.38 412.018-21.423 1.551-24.534 0.101z" />
<glyph unicode="&#xe65b;" glyph-name="plus4" d="M527.36-39.88c-12.549 0-20.828 0-30.802 0 0 157.691 0 314.348 0 473.748-157.215 0-312.73 0-470.031 0 0 11.479 0 20.265 0 31.708 155.356 0 310.938 0 469.151 0 0 158.157 0 313.723 0 470.303 10.89 0 19.154 0 30.024 0 0-155.628 0-311.224 0-469.489 158.111 0 313.661 0 470.472 0 0-10.865 0-19.082 0-29.952-155.039 0-310.579 0-468.808 0-0.005-159.831-0.005-317.071-0.005-476.319z" />
<glyph unicode="&#xe65c;" glyph-name="close" horiz-adv-x="1030" d="M1010.199 893.671c0-6.407 0-12.809 0-19.211-0.536 0-1.068 0-1.604 0-0.749-24.773-27.602-43.61-46.429-62.442-105.055-105.055-203.638-203.643-310.601-310.601-17.551-17.546-40.483-36.14-49.633-52.836-0.223-0.41 0.177-1.164 0-1.599 114.418-115.010 232.329-233.933 350.629-352.233 24.1-24.1 48.18-38.757 57.639-72.048 0-6.402 0-12.809 0-19.211-4.995-34.652-43.448-64.542-86.456-48.034-19.697 7.561-36.879 30.472-54.436 48.034-110.521 110.521-221.483 223.087-331.417 333.016-8.224 8.224-16.473 17.961-27.218 22.415-120.097-119.505-238.174-236.58-360.234-358.635-17.607-17.607-34.48-40.295-56.035-46.429-49.274-14.029-94.979 30.776-76.851 81.654 6.66 18.69 31.55 37.957 48.029 54.436 101.948 101.943 202.773 202.773 307.408 307.398 17.222 17.228 38.19 30.361 49.633 51.237 0.223 0.41-0.182 1.164 0 1.599-112.338 114.636-239.465 239.454-358.645 358.635-17.643 17.643-40.103 35.472-46.429 56.040-12.384 40.245 12.673 76.173 51.232 81.649 4.803 0 9.606 0 14.409 0 0-0.531 0-1.068 0-1.599 25.801 0.547 46.642-25.826 65.641-44.83 113.659-113.659 224.388-224.388 337.819-337.819 8.391-8.391 15.188-20.036 27.218-24.019 67.27 64.932 133.574 133.569 203.334 203.334 48.504 48.499 100.076 100.076 152.102 152.102 22.8 22.8 38.539 47.76 72.048 52.831 4.271 0 8.543 0 12.809 0 31.358-4.929 49.081-23.503 56.040-52.831z" />
<glyph unicode="&#xe65e;" glyph-name="trash" d="M959.36 741.792c-3.072 50.24-44.384 90.112-95.36 90.112h-96v32.064c0 53.024-43.008 96-96 96h-320c-53.024 0-96-42.976-96-96v-32.032h-96c-51.040 0-92.32-39.872-95.392-90.112h-0.608v-69.856c0-35.328 28.672-64 64-64v0-544c0-70.688 57.312-128 128-128h512c70.688 0 128 57.312 128 128v544c35.328 0 64 28.672 64 64v69.824h-0.64zM320 863.936c0 17.696 14.304 32 32 32h320c17.696 0 32-14.304 32-32v-32h-384v32zM832 63.936c0-35.264-28.736-64-64-64h-512c-35.296 0-64 28.736-64 64v544h640v-544zM896 703.968v-32h-768v63.968c0 17.696 14.304 32 32 32h704c17.696 0 32-14.304 32-32v-31.968zM288 63.808h64c17.696 0 32 14.304 32 32v416c0 17.696-14.304 32-32 32h-64c-17.696 0-32-14.304-32-32v-416c0-17.696 14.304-32 32-32zM288 511.84h64v-416h-64v416zM480 63.808h64c17.696 0 32 14.304 32 32v416c0 17.696-14.304 32-32 32h-64c-17.696 0-32-14.304-32-32v-416c0-17.696 14.304-32 32-32zM480 511.84h64v-416h-64v416zM672 63.808h64c17.696 0 32 14.304 32 32v416c0 17.696-14.304 32-32 32h-64c-17.696 0-32-14.304-32-32v-416c0-17.696 14.304-32 32-32zM672 511.84h64v-416h-64v416z" />
<glyph unicode="&#xe65f;" glyph-name="user200" d="M995.52 53.248c-6.432 4.256-123.136 80.8-296.736 118.368 63.68 80.672 104.576 189.184 121.952 261.408 24.128 100.096 14.752 295.936-81.376 417.984-56.192 71.328-134.816 108.992-227.36 108.992s-171.168-37.696-227.328-108.992c-96.128-122.016-105.472-317.856-81.376-417.952 17.376-72.224 58.24-180.736 121.952-261.408-173.6-37.568-290.304-114.112-296.704-118.368-23.456-15.616-33.952-44.8-25.76-71.744 8.128-27.040 33.056-45.536 61.216-45.536h896c28.192 0 53.056 18.496 61.248 45.504 8.224 26.944-2.272 56.128-25.728 71.744zM648.544 211.264l-10.432-13.248c-76.32-87.68-175.84-87.68-252.128 0l-10.464 13.248c-89.12 112.928-133.344 262.304-114.304 404.8 17.44 136.928 95.904 279.936 250.784 279.936s233.376-143.040 250.816-279.968c18.976-142.56-25.088-291.776-114.272-404.768zM64 0c4.416 2.944 112.832 74.048 274.752 109.056l79.488 17.184c28.384-18.624 59.52-30.24 93.76-30.24 34.272 0 65.376 11.616 93.76 30.24l79.488-17.184c160.64-34.752 268.672-105.056 274.752-109.056h-896z" />
<glyph unicode="&#xe662;" glyph-name="settings" d="M972.512 554.24l-98.048 19.648c-4.928 14.176-10.752 27.936-17.184 41.248l55.552 83.328c16.928 25.376 13.568 59.2-8 80.736l-61.568 61.568c-12.384 12.384-28.736 18.752-45.312 18.752-12.256 0-24.64-3.52-35.424-10.752l-83.328-55.52c-13.376 6.464-27.136 12.224-41.312 17.152l-19.648 98.080c-5.952 29.952-32.256 51.456-62.752 51.456h-87.040c-30.496 0-56.768-21.536-62.752-51.456l-19.648-98.080c-14.176-4.928-27.936-10.72-41.248-17.152l-83.296 55.52c-10.848 7.232-23.2 10.752-35.488 10.752-16.544 0-32.896-6.368-45.28-18.752l-61.536-61.568c-21.568-21.568-24.928-55.36-8-80.736l55.52-83.328c-6.464-13.344-12.224-27.104-17.152-41.28l-98.112-19.616c-29.92-5.984-51.456-32.256-51.456-62.752v-87.040c0-30.496 21.536-56.8 51.456-62.752l98.080-19.68c4.928-14.176 10.72-27.936 17.152-41.248l-55.488-83.328c-16.928-25.376-13.568-59.2 8-80.736l61.568-61.568c12.384-12.384 28.736-18.752 45.28-18.752 12.288 0 24.672 3.552 35.456 10.752l83.328 55.552c13.344-6.496 27.104-12.256 41.28-17.184l19.616-98.048c5.984-29.952 32.256-51.488 62.752-51.488h87.040c30.496 0 56.8 21.568 62.752 51.488l19.68 98.048c14.176 4.928 27.936 10.752 41.248 17.184l83.328-55.552c10.816-7.2 23.2-10.752 35.424-10.752 16.576 0 32.928 6.368 45.312 18.752l61.568 61.568c21.568 21.568 24.928 55.36 8 80.736l-55.552 83.328c6.496 13.376 12.256 27.136 17.184 41.312l98.048 19.616c29.92 5.92 51.488 32.256 51.488 62.752v87.040c0 30.496-21.568 56.768-51.488 62.752zM861.888 384.8c-22.24-4.448-40.448-20.32-47.872-41.76-4.128-11.808-8.928-23.264-14.304-34.368-9.952-20.448-8.256-44.576 4.32-63.424l55.552-83.328-61.568-61.568-83.328 55.552c-10.688 7.136-23.072 10.752-35.488 10.752-9.504 0-19.072-2.112-27.872-6.368-11.136-5.376-22.56-10.24-34.432-14.368-21.376-7.424-37.248-25.632-41.696-47.872l-19.68-98.112h-87.040l-19.616 98.112c-4.448 22.24-20.32 40.448-41.728 47.872-11.808 4.128-23.296 8.928-34.4 14.304-8.832 4.32-18.368 6.432-27.904 6.432-12.448 0-24.8-3.616-35.488-10.752l-83.328-55.552-61.568 61.568 55.52 83.328c12.576 18.88 14.208 43.008 4.384 63.36-5.376 11.136-10.208 22.56-14.336 34.432-7.424 21.376-25.664 37.248-47.872 41.696l-98.080 19.68-0.064 87.072 98.112 19.616c22.208 4.448 40.448 20.32 47.872 41.728 4.128 11.808 8.896 23.296 14.304 34.4 9.92 20.416 8.256 44.544-4.352 63.392l-55.488 83.328 61.536 61.568 83.328-55.52c10.688-7.136 23.072-10.752 35.488-10.752 9.504 0 19.040 2.112 27.872 6.368 11.104 5.376 22.56 10.208 34.4 14.336 21.408 7.424 37.28 25.664 41.728 47.872l19.648 98.080 87.040 0.032 19.616-98.112c4.448-22.208 20.32-40.448 41.76-47.872 11.808-4.128 23.264-8.896 34.368-14.304 8.864-4.288 18.368-6.4 27.936-6.4 12.448 0 24.8 3.616 35.488 10.752l83.328 55.52 61.568-61.568-55.552-83.328c-12.576-18.88-14.176-42.976-4.384-63.36 5.376-11.104 10.24-22.56 14.368-34.4 7.424-21.408 25.632-37.28 47.872-41.728l98.048-19.648 0.096-87.040-98.112-19.648zM512 671.968c-123.68 0-224-100.32-224-224 0-123.712 100.32-224 224-224s224 100.32 224 224c0 123.68-100.32 224-224 224zM512 251.936c-108.224 0-196 87.808-196 196 0 108.224 87.776 196 196 196 108.192 0 196-87.776 196-196 0-108.192-87.808-196-196-196zM512 575.968c-70.72 0-128-57.28-128-128 0-70.688 57.28-128 128-128 70.688 0 128 57.312 128 128s-57.312 128-128 128zM512 351.936c-52.992 0-96 43.008-96 96s43.008 96 96 96 96-43.008 96-96c0-52.992-43.008-96-96-96z" />
<glyph unicode="&#xe66d;" glyph-name="stack2" d="M1021.568 369.44l-128.064 480.192c-7.744 27.296-33.056 46.368-61.504 46.368h-640c-28.48 0-53.76-19.072-61.504-46.368l-128.064-480.192c-1.632-5.824-2.432-11.68-2.432-17.44v-224c0-70.688 57.312-128 128-128h768c70.688 0 128 57.312 128 128v224c0 5.76-0.8 11.616-2.432 17.44zM960 128c0-35.264-28.736-64-64-64h-768c-35.296 0-64 28.736-64 64v224l128.032 480.032h639.904l128.064-480.032v-224zM759.744 768h-495.488c-14.496 0-27.2-9.76-30.944-23.776l-110.24-384c-2.528-9.632-0.512-19.872 5.568-27.744s15.424-12.48 25.344-12.48h146.176l46.304-92.64c10.88-21.664 33.024-35.36 57.28-35.36h216.512c24.256 0 46.368 13.696 57.248 35.36l46.304 92.64h146.176c9.952 0 19.328 4.64 25.376 12.512s8.064 18.112 5.568 27.744l-110.24 384c-3.744 14.016-16.448 23.744-30.944 23.744zM776.992 384h-53.184c-24.384 0-46.304-13.504-57.248-35.36l-46.304-92.64h-216.512l-46.304 92.64c-10.944 21.856-32.864 35.36-57.248 35.36h-129.504l93.568 352h495.488l93.568-352h-76.32z" />
<glyph unicode="&#xe671;" glyph-name="mail500" d="M896 800h-768c-70.688 0-128-57.344-128-128v-416c0-70.688 57.312-128 128-128h768c70.688 0 128 57.312 128 128v416c0 70.656-57.312 128-128 128zM64 632l223.968-168-223.968-168v336zM960 256c0-35.328-28.736-64-64-64h-768c-35.296 0-64 28.672-64 64l250.624 188 139.776-104.864c17.056-12.736 37.312-19.2 57.6-19.2 20.256 0 40.512 6.432 57.568 19.2l139.808 104.864 250.624-188zM960 296l-224 168 224 168v-336zM550.368 364.736c-11.168-8.384-24.416-12.8-38.368-12.8s-27.232 4.448-38.4 12.8l-409.6 307.264c0 35.296 28.704 64 64 64h768c35.264 0 64-28.704 64-64l-409.632-307.264z" />
<glyph unicode="&#xe674;" glyph-name="home" horiz-adv-x="1113" d="M556.666 936.795c182.448-138.488 362.411-279.436 542.687-420.095 0-55.812 0-111.63 0-167.442-2.617-5.203-6.367 2.202-7.475 2.991-42.011 30.017-84.969 65.965-127.076 98.674-129.394 100.501-258.317 199.974-390.195 301.988-5.992 4.641-16.251 13.452-16.448 13.457-5.162 0.172-26.358-20.74-34.384-26.909-124.839-95.92-249.237-191.821-373.752-288.541-45.392-35.26-88.997-72.002-134.546-103.153 0 37.578 0 83.516 0 125.578 0 14.236-3.173 31.935 0 41.864 2.171 6.787 21.519 18.149 32.891 26.909 166.136 127.997 345.654 270.817 508.298 394.679zM556.666 664.703c137.046-101.159 273.581-202.818 408.136-306.477 0-135.052 0-270.094 0-405.145-90.698 0-181.395 0-272.093 0 0 90.698 0 181.395 0 272.093-90.202 0-180.398 0-270.595 0 0-90.698 0-181.39 0-272.093-90.698 0-181.39 0-272.093 0 0 118.184 0 232.536 0 354.318 0 16.985-3.254 38.595 0 49.334 3.416 11.261 38.807 31.049 49.339 38.873 85.773 63.692 166.354 125.851 251.16 189.867 35.786 27.010 71.997 53.079 106.144 79.229z" />
<glyph unicode="&#xe676;" glyph-name="paperplane" d="M1009.376 954.88c-5.312 3.424-11.36 5.12-17.376 5.12-6.176 0-12.384-1.76-17.76-5.376l-960-640c-9.888-6.56-15.328-18.112-14.048-29.952 1.216-11.808 8.896-22.016 19.936-26.368l250.368-100.192 117.728-206.016c5.632-9.888 16.096-16 27.424-16.128 0.128 0 0.224 0 0.352 0 11.232 0 21.664 5.952 27.424 15.552l66.464 110.816 310.24-124.064c3.808-1.536 7.808-2.272 11.872-2.272 5.44 0 10.816 1.376 15.68 4.128 8.448 4.736 14.24 13.056 15.872 22.624l160 960c2.080 12.576-3.488 25.184-14.176 32.128zM100.352 295.136l741.6 494.432-539.2-577.184c-2.848 1.696-5.376 3.936-8.512 5.184l-193.888 77.568zM326.048 189.888c-0.064 0.128-0.16 0.192-0.224 0.32l606.176 648.8-516.768-805.184-89.184 156.064zM806.944 12.512l-273.312 109.312c-6.496 2.56-13.248 3.424-19.936 3.808l420.864 652.416-127.616-765.536z" />
<glyph unicode="&#xe67c;" glyph-name="study" d="M1024 704c0 44.992-30.624 83.456-74.432 93.568l-416.416 96.096c-6.976 1.568-14.080 2.336-21.152 2.336s-14.176-0.768-21.6-2.432l-415.968-96c-43.84-10.112-74.432-48.576-74.432-93.568s30.624-83.456 74.4-93.568l85.6-19.744v-270.688c0-84.928 97.216-160 352-160s352 75.072 352 160v270.688l85.568 19.744c43.808 10.112 74.432 48.576 74.432 93.568zM800 320c0-35.36-96-96-288-96s-288 60.64-288 96v255.904l266.816-61.568c6.976-1.568 14.112-2.336 21.184-2.336s14.208 0.768 21.568 2.432l266.432 61.472v-255.904zM519.2 576.8c-2.4-0.512-4.8-0.8-7.2-0.8s-4.832 0.288-7.2 0.8l-416 96c-14.528 3.36-24.8 16.288-24.8 31.2s10.272 27.84 24.8 31.2l416 96c2.368 0.512 4.768 0.8 7.2 0.8s4.832-0.288 7.2-0.8l416-96c14.496-3.36 24.8-16.288 24.8-31.2s-10.304-27.84-24.8-31.2l-416-96zM928 544c0 17.696 14.304 32 32 32 17.664 0 32-14.304 32-32v-288c0-17.696-14.336-32-32-32-17.696 0-32 14.304-32 32v288zM960 192c35.328 0 64-92.672 64-128s-28.672-64-64-64c-35.36 0-64 28.672-64 64s28.64 128 64 128z" />
<glyph unicode="&#xe67d;" glyph-name="mediatrends" horiz-adv-x="4158" d="M434.934 943.446c0.693 0 1.392 0 2.090 0 136.272-83.926 275.99-164.41 411.826-248.767 0-163.753 0-327.51 0-491.268-14.414-14.242-32.886-22.987-50.169-33.443-117.784-71.279-242.081-143.833-361.656-217.414-138.974 81.228-274.512 165.893-413.921 246.682 0 165.848 0 331.691 0 497.538 138.453 81.041 275.119 163.879 411.831 246.671zM437.024 243.135c91.254 57.204 182.822 121.863 269.673 179.781 12.911 8.609 27.795 14.753 37.628 27.177-104.853 65.175-202.601 137.451-307.302 202.778 0-136.585 0-273.16 0-409.736zM2088.518 684.223c6.918-1.908 1.503-16.337 0-25.087-22.835-132.486-53.97-281.061-77.357-416.006-35.533 0-71.071 0-106.614 0 0.901 13.042 2.915 24.956 6.276 35.538-25.016-16.742-70.626-59.902-119.16-35.538-48.681 24.439-43.453 125.816-27.172 196.507 21.529 93.491 70.347 153.651 192.317 142.152 10.517 25.725 11.377 61.101 18.822 89.893 37.669 4.145 76.076 7.541 112.89 12.541zM1892.011 473.085c-16.499-27.967-21.914-94.245-25.087-131.701 21.312-1.108 36.672 3.745 50.164 10.451 7.455 47.603 16.565 93.537 25.087 140.067-25.77 6.179-41.222-3.639-50.164-18.817zM2249.482 684.223c-2.819-25.75-8.639-48.504-12.546-73.166-41.814-0.703-79.037-5.977-121.246-6.271 5.142 24.131 7.652 50.878 14.631 73.166 41.287 0.516 78.065 5.552 119.16 6.271zM3923.968 684.223c10.248-6.164 1.007-18.366 0-25.087-20.36-136.175-52.508-277.933-75.262-416.006-36.237 0-72.463 0-108.704 0 4.727 9.904 3.092 26.165 8.361 35.538-8.371 0.987-13.639-8.71-20.907-14.636-22.192-18.093-73.126-42.381-108.71-14.631-25.204 19.667-29.92 69.548-27.172 119.155 3.629 65.514 24.050 140.513 58.535 175.605 30.513 31.044 84.437 41.029 144.237 37.628 9.656 26.59 11.043 61.43 18.822 89.893 36.722 4.388 75.105 7.116 110.8 12.541zM3706.554 339.293c16.458 3.755 35.958 4.454 48.079 12.541 6.928 48.13 16.023 94.078 25.087 140.067-71.982 17.875-70.676-101.123-73.166-152.608zM1225.143 659.141c2.1-73.166 2.333-148.18 6.271-219.504 27.547 71.405 52.745 145.159 77.347 219.504 50.174 0 100.349 0 150.513 0-15.699-136.909-27.046-278.161-43.894-413.921-38.6-0.425-74.082-3.968-110.8-6.271 10 72.23 17.303 147.153 27.182 219.504-31.525-69.517-60.489-141.596-89.898-213.229-30.234-0.425-57.462-3.856-85.712-6.271-5.041 72.301-9.084 145.609-14.626 217.409-18.66-69.138-33.888-141.707-50.174-213.229-36.93 0-73.86 0-110.795 0 35.037 139.166 69.188 279.218 106.609 416.006 45.989 0 91.983 0 137.977 0zM2788.829 659.141c-5.623-36.884-17.040-67.979-25.087-102.434-20.213 0-40.417 0-60.625 0-23.969-100.769-38.661-210.814-60.625-313.572-38.332 0-76.653 0-114.98 0 20.203 103.831 38.413 209.655 58.535 313.572-23.695 0-47.386 0-71.081 0 8.133 32.982 10.193 72.038 20.907 102.434 84.326 0 168.641 0 252.957 0zM1718.496 368.561c-47.229-1.554-92.859-4.692-137.972-8.361-4.823-6.326-0.739-21.565-2.095-31.358 45.62 0.375 87.362 4.626 125.436 12.546 0-29.268 0-58.535 0-87.803-64.289-14.378-175.079-41.095-219.504 10.451-46.642 54.122-11.256 212.191 25.082 265.493 9.176 13.442 24.060 28.114 35.543 35.538 43.226 27.962 152.431 35.32 186.051-8.361 36.069-46.89 4.56-143.438-12.541-188.146zM1586.789 425.006c15.755-1.113 25.573 3.7 41.814 2.090 8.123 20.446 11.488 45.655 14.631 71.076-49.248 13.958-48.545-38.924-56.445-73.166zM2458.53 243.135c-36.237 0-72.473 0-108.71 0 0.425 7.936 1.857 14.869 4.18 20.902-20.335-9.651-40.943-28.002-75.251-27.177-42.73 1.032-63.854 30.27-64.806 71.076-2.374 102.039 54.841 154.030 165.144 140.062 4.97 10.355 4.945 25.72 8.361 37.628-48.12 2.126-89.27-2.703-125.426-12.541 0 31.353 0 62.715 0 94.073 87.833 21.656 250.786 54.041 240.406-77.352-3.143-39.794-15.431-82.22-22.992-123.341-7.698-41.829-14.054-82.843-20.907-123.331zM2318.463 320.476c16.124-0.79 29.151 1.513 39.718 6.276 3.401 19.591 7.313 38.671 10.456 58.53-43.58 13.062-49.233-28.397-50.174-64.806zM2999.967 581.789c-7.976-38.706-19.237-74.143-27.172-112.885-32.284-1.862-60.205-8.087-83.622-18.812-13.619-67.903-25.214-137.845-37.633-206.958-38.322 0-76.648 0-114.97 0 19.343 111.66 40.381 221.62 60.625 332.389 34.202 4.12 73.237 3.416 106.614 8.361 2.708-15.967-6.068-38.509-8.361-56.445 24.384 18.381 46.298 76.41 104.519 54.35zM3232.008 368.561c-47.113-1.66-93.096-4.454-137.972-8.361-4.823-6.326-0.739-21.565-2.085-31.358 45.62 0.375 87.352 4.626 125.426 12.546 0-29.268 0-58.535 0-87.803-93.233-24.728-228.695-42.001-240.406 62.715-9.57 85.535 25.178 212.323 81.527 248.772 38.529 24.92 151.363 36.722 186.051-8.361 36.479-47.421 3.644-142.517-12.541-188.151zM3100.316 425.006c15.745-1.113 25.563 3.7 41.814 2.090 7.642 20.927 11.24 45.893 14.631 71.076-49.152 13.857-49.319-38.16-56.445-73.166zM3535.134 243.135c-38.322 0-76.653 0-114.97 0 13.543 81.223 28.539 160.989 43.889 240.401-24.632-0.445-42.542-7.622-58.525-16.721-11.893-75.909-27.026-148.58-39.718-223.679-38.332 0-76.653 0-114.98 0 19.297 111.706 40.478 221.523 60.625 332.389 34.202 4.12 73.237 3.416 106.614 8.361 4.312-9.94-4.16-25.062-4.18-37.628 19.52 7.495 54.259 35.7 91.978 39.718 46.657 4.97 83.496-12.45 79.442-64.806-3.32-42.755-16.539-92.484-25.087-140.062-8.806-48.995-18.695-96.265-25.087-137.972zM4141.382 573.428c-5.81-33.215-15.649-62.402-20.907-96.163-22.051 3.543-58.94 16.833-79.442 2.090-1.513-28.028 18.908-46.444 31.363-64.806 20.421-30.118 44.977-86.047 18.812-131.701-29.764-51.936-123.194-57.3-192.327-35.538 0 33.448 0 66.896 0 100.344 26.135-6.62 52.715-12.789 85.712-12.541-7.354 61.855-63.313 78.055-60.625 152.608 3.441 95.44 119.879 114.929 217.414 85.707zM2226.48 583.879c1.781 0.385 1.979-0.815 2.095-2.090-18.543-114.545-41.844-224.353-60.625-338.659-38.322 0-76.653 0-114.98 0 18.665 112.333 39.739 222.272 60.625 332.389 36.090 4.327 77.731 3.107 112.885 8.361z" />
<glyph unicode="&#xe681;" glyph-name="newsletter" horiz-adv-x="1265" d="M126.281 929.945c338.168 0 676.361 0 1014.529 0 51.353-10.031 82.44-40.328 92.079-92.079 0-260.056 0-520.093 0-780.15-7.692-43.748-34.010-75.413-73.666-87.061-31.497-9.247-78.889-5.018-127.233-5.018-261.368 0-526.99 0-788.514 0-45.713 0-93.864-5.491-128.912 1.679-41.099 8.401-71.769 43.854-80.357 83.702 0 264.515 0 529.023 0 793.538 11.654 47.498 41.609 76.694 92.073 85.388zM286.995 799.355c86.283-68.467 173.866-135.609 259.49-202.565 28.63-22.387 55.625-47.784 87.061-66.968 115.43 90.487 231.817 180.016 346.538 271.206 2.568 0.019 5.503 4.564 0 3.352-232.147 0-464.288 0-696.435 0-0.087-2.879 1.287-4.291 3.346-5.025zM1052.077 695.566c-107.24-83.864-214.026-166.329-321.434-251.12-36.758-29.022-82.017-63.231-143.973-36.833-17.524 7.469-36.839 24.134-55.246 38.506-122.668 95.798-248.738 197.118-368.316 287.947-0.093 1.76-2.145 1.318-1.673-1.673 0-213.734 0-427.461 0-641.195 314.177 0 628.347 0 942.536 0 3.905 210.941 0.56 429.14 1.673 642.868-19.054-10.422-36.286-24.986-53.567-38.499z" />
<glyph unicode="&#xe682;" glyph-name="shop" d="M1004.8 601.6l-96 127.936c-3.744 5.024-8.192 9.376-12.8 13.536v152.928c0 35.328-28.672 64-64 64h-640c-35.36 0-64-28.672-64-64v-152.96c-4.608-4.128-9.056-8.448-12.8-13.44l-95.968-127.968c-12.416-16.512-19.232-36.96-19.232-57.632v-32c0-52.928 43.072-96 96-96v0-416c0-35.328 28.672-64 64-64h704c35.328 0 64 28.672 64 64v416c52.928 0 96 43.072 96 96v32c0 20.672-6.816 41.12-19.2 57.6zM832 896v-128h-640v128h640zM326.176 480h-134.048l128 224h70.048l-64-224zM423.488 704h72.512v-224h-136.512l64 224zM528 704h72.512l64-224h-136.512v224zM633.76 704h70.048l128-224h-134.048l-64 224zM64 512v32c0 6.944 2.24 13.664 6.4 19.2l96 128c6.048 8.064 15.52 12.8 25.6 12.8h91.264l-128-224h-59.264c-17.664 0-32 14.304-32 32zM640 0h-240v320h240v-320zM864 0h-192v320c0 17.696-14.368 32-32 32h-240c-17.664 0-32-14.304-32-32v-320h-208v416h704v-416zM960 512c0-17.696-14.304-32-32-32h-59.328l-128 224h91.328c10.048 0 19.552-4.736 25.568-12.8l96-128c4.192-5.536 6.432-12.256 6.432-19.2v-32z" />
<glyph unicode="&#xe686;" glyph-name="tlg-cart" horiz-adv-x="1146" d="M1090.598 755.821c-10.359 1.256-20.749 2.218-31.125 3.34-86.185 9.312-172.36 18.695-258.554 27.935-78.215 8.384-156.45 16.561-234.665 24.93-79.819 8.541-159.599 17.448-239.464 25.524-11.135 1.126-16.202 4.078-16.727 15.924-0.682 15.372-6.048 20.040-21.299 22.712-3.149 0.552-6.257 1.348-9.368 2.098-69.342 16.761-138.672 33.57-208.037 50.244-8.268 1.989-16.78 3.152-24.263-2.563-8.7-6.65-12.594-15.758-10.967-26.459 1.623-10.672 8.676-16.281 19.196-18.806 65.079-15.618 130.041-31.723 195.176-47.102 9.464-2.235 13.761-5.208 14.808-15.893 2.578-26.327 7.299-52.439 10.947-78.666 20.4-146.636 40.657-293.294 61.339-439.891 0.945-6.708-0.41-11.439-3.894-16.621-26.192-38.95-52.222-78.013-78.37-116.994-5.242-7.82-7.707-15.89-2.985-24.766 5.083-9.551 12.382-15.186 24.007-14.798 15.073 0.502 30.177 0.123 46.343 0.123-50.126-28.579-67.285-58.925-56.878-99.3 9.269-35.957 40.177-60.21 77.311-60.664 35.432-0.436 67.77 23.305 77.779 57.102 12.117 40.91-3.73 70.596-54.271 102.157h461.181c-46.331-22.49-65.913-53.876-58.686-92.442 7.031-37.542 36.972-64.249 74.868-66.786 35.154-2.356 68.765 19.693 80.402 53.307 7.579 21.89 6.132 43.604-4.374 64.247-10.571 20.764-28.367 33.551-49.969 41.699 17.024 0.687 33.503 0.434 49.969 0.772 12.030 0.248 20.715 9.023 22.039 21.275 1.464 13.566-5.72 24.935-17.962 27.356-5.452 1.075-11.174 1.083-16.771 1.085-189.671 0.051-379.343 0.043-569.016 0.043h-15.478c17.46 26.192 33.519 49.637 48.79 73.583 4.632 7.263 9.534 9.828 18.241 9.814 184.047-0.297 368.092-0.227 552.14-0.222 18.811 0 25.512 4.514 31.067 21.851 46.922 146.429 93.795 292.872 140.596 439.337 6.325 19.816-2.378 33.008-23.076 35.516zM329.883 712.113c-3.101 22.657-6.158 45.318-9.515 67.934-0.924 6.212 0.137 8.654 7.215 7.615 13.489-1.977 27.089-3.359 40.686-4.408 6.46-0.497 8.91-2.679 8.529-9.464-0.603-10.815-0.162-21.687-0.164-32.536s-0.154-21.702 0.063-32.545c0.104-5.054-1.153-7.227-6.855-6.513-11.143 1.391-22.365 2.262-33.58 2.927-4.885 0.289-5.843 3.091-6.378 6.99zM343.367 618.386c-3.065 19.727-5.681 39.524-8.635 59.265-0.82 5.474-0.907 9.226 6.735 8.006 9.054-1.444 18.261-2.074 27.429-2.633 6.035-0.367 8.143-2.886 7.899-9.013-0.458-11.579-0.133-23.189-0.133-34.79 0-11.598-0.379-23.214 0.14-34.79 0.318-7.154-2.182-8.502-8.98-8.068-21.002 1.346-21.186 1.001-24.455 22.025zM376.947 397.969c-0.993-0.121-1.985-0.241-2.978-0.357-3.381 23.57-6.764 47.146-10.14 70.719-0.475 3.33 0.195 5.589 4.36 4.801 4.186-0.793 8.912-0.207 8.845-6.998-0.229-22.719-0.087-45.443-0.087-68.165zM372.088 491.935c-6.402-0.125-12.044 0.306-12.949 9.59-1.905 19.544-5.146 38.955-7.829 58.421-0.055 0.395-0.017 0.803-0.065 1.201-2.105 17.935-2.134 17.574 16.252 16.187 7.292-0.552 9.686-3.103 9.346-10.306-0.533-11.22-0.142-22.485-0.142-33.729 0-10.443 0.285-20.896-0.154-31.32-0.152-3.61 3.212-9.898-4.458-10.043zM899.869 726.453c20.715-2.39 41.445-4.654 62.187-6.773 4.017-0.412 6.703-0.931 6.655-6.072-0.215-22.435-0.092-44.872-0.092-67.914-23.554 2.209-46.208 4.48-68.893 6.342-5.011 0.41-7.135 1.987-7.096 7.162 0.159 20.472 0.253 40.951-0.055 61.421-0.096 5.978 2.568 6.38 7.294 5.835zM792.086 636.16c-0.055 5.56 1.931 6.747 7.029 6.209 22.707-2.404 45.429-4.726 68.182-6.629 5.671-0.477 6.207-3.19 6.132-7.752-0.198-12.433-0.065-24.868-0.065-37.303 0-12.433-0.268-24.875 0.116-37.3 0.181-5.855-1.584-7.663-7.485-7-22.29 2.513-44.614 4.789-66.957 6.81-4.955 0.449-6.981 1.898-6.937 7.157 0.215 25.268 0.239 50.541-0.014 75.809zM799.826 736.846c22.273-2.566 44.558-5.095 66.892-7.060 6.175-0.543 6.884-3.308 6.735-8.391-0.301-10.014-0.089-20.043-0.089-30.064-0.002-10.024-0.263-20.055 0.104-30.064 0.2-5.483-1.758-6.863-6.976-6.306-22.69 2.433-45.393 4.839-68.139 6.646-5.826 0.463-6.231 3.13-6.207 7.605 0.109 20.445 0.326 40.896-0.116 61.334-0.137 6.624 2.585 6.901 7.796 6.301zM800.308 533.945c22.314-2.455 44.638-4.871 66.998-6.822 5.638-0.489 6.221-3.067 6.132-7.668-0.229-12.040-0.075-24.084-0.075-36.126 0-10.839-0.292-21.69 0.113-32.512 0.236-6.356-0.767-9.599-8.394-8.683-21.89 2.628-43.84 4.827-65.804 6.728-5.676 0.492-7.282 2.409-7.21 8.008 0.301 23.281 0.417 46.569-0.051 69.843-0.14 6.93 2.501 7.866 8.29 7.231zM694.139 710.259c0 10.417 0.142 20.836-0.058 31.248-0.099 5.093 1.215 6.981 6.918 6.279 21.043-2.595 42.145-4.75 63.251-6.756 6.161-0.584 9.009-2.397 8.835-9.414-0.504-20.019-0.388-40.064-0.048-60.087 0.101-5.872-1.435-7.692-7.415-7.022-21.465 2.406-42.96 4.615-64.488 6.371-5.881 0.48-7.292 2.71-7.101 8.136 0.362 10.402 0.104 20.829 0.106 31.246zM694.006 537.738c-0.111 7.424 4.246 6.279 8.575 5.84 21.104-2.134 42.176-4.596 63.306-6.404 5.867-0.504 7.289-2.734 7.125-8.177-0.35-11.61-0.106-23.243-0.106-34.863 0-11.622-0.289-23.257 0.123-34.863 0.205-5.763-1.355-7.95-7.367-7.275-21.875 2.46-43.777 4.704-65.691 6.807-4.565 0.436-5.956 2.291-5.92 6.797 0.188 24.045 0.316 48.093-0.046 72.136zM701.677 651.681c21.518-2.322 43.049-4.557 64.606-6.431 5.035-0.439 6.79-1.915 6.74-7.147-0.256-24.882-0.217-49.769-0.039-74.651 0.041-5.589-1.138-7.719-7.509-6.947-21.089 2.554-42.248 4.622-63.422 6.334-6.137 0.497-8.285 2.414-8.049 8.666 0.456 12.023 0.135 24.077 0.135 36.119 0 12.442 0.345 24.897-0.147 37.322-0.246 6.301 2.259 7.318 7.685 6.735zM595.174 750.918c-0.065 5.495 1.008 8.107 7.251 7.371 22.283-2.621 44.592-5.056 66.93-7.181 5.213-0.497 5.544-3.299 5.517-7.224-0.072-10.834-0.027-21.666-0.024-32.497 0.002-10.431-0.28-20.872 0.116-31.289 0.207-5.457-1.7-6.812-6.858-6.269-21.924 2.298-43.859 4.458-65.821 6.351-5.556 0.477-7.263 2.472-7.162 8.155 0.381 20.853 0.301 41.723 0.051 62.583zM674.914 572.27c0.034-5.187-1.329-6.689-6.932-6.031-21.449 2.527-42.95 4.721-64.483 6.32-7.145 0.53-8.524 3.523-8.329 9.795 0.374 12.003 0.109 24.031 0.109 36.047 0 11.615 0.181 23.235-0.075 34.846-0.13 5.794 0.629 8.514 7.883 7.625 21.434-2.631 42.969-4.509 64.507-6.149 5.765-0.439 7.41-2.392 7.362-7.95-0.239-24.832-0.188-49.668-0.041-74.502zM604.851 553.486c20.662-2.679 41.443-4.536 62.204-6.361 5.809-0.511 8.083-2.233 7.967-8.601-0.429-23.276-0.371-46.567-0.034-69.848 0.089-6.113-1.837-7.511-7.605-6.843-21.907 2.532-43.835 4.919-65.802 6.819-5.655 0.487-6.433 2.99-6.363 7.634 0.181 11.637 0.060 23.281 0.060 34.923-0.002 10.839 0.362 21.694-0.13 32.512-0.335 7.395 0.904 10.906 9.703 9.766zM493.058 699.341c0.497 10.402 0.137 20.843 0.137 31.267 0 10.824 0.159 21.651-0.070 32.473-0.104 4.991 0.931 6.971 6.701 6.255 22.645-2.824 45.342-5.293 68.064-7.41 6.65-0.62 8.389-3.2 8.251-9.667-0.424-20.438-0.381-40.896-0.024-61.336 0.116-6.332-1.526-8.3-8.061-7.586-22.283 2.433-44.609 4.569-66.959 6.277-6.923 0.528-8.338 3.465-8.039 9.727zM465.683 309.238c-10.422 0.381-20.87 0.106-31.308 0.106-10.036 0-20.081 0.251-30.103-0.094-5.768-0.198-8.671 0.851-8.476 7.699 0.482 16.845 0.371 33.72 0.046 50.575-0.121 6.137 2.091 7.386 7.798 6.718 20.708-2.426 41.443-4.704 62.219-6.407 6.137-0.504 8.355-2.25 8.174-8.546-0.408-14.039-0.468-28.109 0.022-42.145 0.231-6.67-2.382-8.126-8.372-7.907zM395.955 532.848c0.002 11.22 0.205 22.447-0.080 33.657-0.152 5.893 1.83 7.456 7.769 6.795 20.687-2.296 41.426-4.135 62.171-5.859 5.804-0.482 8.331-2.363 8.232-8.748-0.357-23.235-0.318-46.483-0.017-69.72 0.077-5.915-1.454-7.446-7.468-6.752-20.672 2.392-41.392 4.449-62.142 6.038-6.863 0.526-8.804 3.262-8.582 9.732 0.4 11.603 0.113 23.238 0.116 34.858zM395.88 461.601c-0.048 5.136 0.393 8.408 6.995 7.675 21.485-2.387 43.003-4.43 64.524-6.462 4.883-0.461 6.81-2.457 6.621-7.593-0.381-10.402-0.113-20.836-0.113-31.253 0-7.612 0.002-15.227 0-22.842 0-15.261 0.012-15.138-14.656-13.479-18.695 2.11-37.394 4.225-56.135 5.85-5.618 0.487-7.376 2.358-7.287 7.998 0.321 20.033 0.234 40.073 0.051 60.107zM465.507 586.596c-20.269 2.346-40.601 4.162-60.931 5.941-6.199 0.545-8.924 2.65-8.789 9.573 0.451 23.235 0.19 46.48 0.159 69.723-0.005 4.724-0.263 8.384 6.954 7.571 21.468-2.419 43.020-4.133 64.567-5.744 5.464-0.408 6.566-2.947 6.496-7.668-0.176-12.018-0.058-24.043-0.058-36.063 0-11.62-0.326-23.255 0.128-34.858 0.258-6.585-1.201-9.32-8.526-8.476zM464.448 693.021c-19.922 2.18-39.893 3.933-59.87 5.505-6.375 0.504-8.936 2.652-8.789 9.546 0.453 21.263 0.482 42.55-0.005 63.813-0.171 7.528 2.73 8.526 9.148 7.731 20.286-2.513 40.599-4.895 60.958-6.699 6.132-0.545 8.401-2.334 8.141-8.62-0.446-10.817-0.123-21.668-0.123-32.504 0-10.033-0.538-20.108 0.171-30.091 0.564-7.948-2.419-9.467-9.631-8.681zM492.952 659.798c-0.374 10.173 2.802 11.389 12.071 10.173 20.655-2.718 41.511-3.906 62.267-5.898 3.54-0.338 8.686 1.237 8.681-5.324-0.027-27.624-0.010-55.248-0.010-82.966-24.766 2.349-48.296 4.89-71.886 6.658-8.497 0.634-11.449 3.332-11.128 12.327 0.767 21.656 0.798 43.377 0.005 65.030zM575.985 413.549c0.002-9.643-0.27-19.295 0.101-28.924 0.231-5.896-0.834-8.541-7.757-7.721-22.714 2.689-45.487 4.97-68.281 6.872-6.002 0.502-7.027 2.939-6.959 8.235 0.26 20.086 0.403 40.184-0.053 60.263-0.164 7.094 2.742 7.745 8.553 7.104 22.736-2.515 45.489-4.905 68.276-6.884 5.553-0.482 6.325-2.922 6.202-7.605-0.263-10.441-0.082-20.894-0.082-31.34zM567.84 309.228c-11.22 0.415-22.469 0.121-33.705 0.121s-22.485 0.306-33.705-0.125c-5.886-0.229-7.506 1.792-7.354 7.487 0.369 13.633 0.306 27.286 0.029 40.927-0.111 5.587 1.078 7.69 7.398 6.942 22.285-2.648 44.628-4.924 67-6.701 6.843-0.545 8.903-2.992 8.608-9.583-0.465-10.412-0.547-20.884 0.029-31.289 0.367-6.728-2.32-8.001-8.3-7.779zM576.149 546.754c-0.603-11.191-0.159-22.437-0.159-33.659s-0.246-22.454 0.099-33.664c0.178-5.811-0.702-8.618-7.687-7.779-22.652 2.722-45.359 5.049-68.088 6.998-5.944 0.509-7.248 2.882-7.203 8.232 0.2 23.245 0.195 46.492 0.007 69.74-0.043 5.387 0.762 7.87 7.265 7.118 22.259-2.578 44.578-4.755 66.921-6.486 7.4-0.574 9.221-3.518 8.845-10.499zM595.275 412.172c0 9.221 0.453 18.471-0.142 27.655-0.499 7.687 1.36 10.631 9.797 9.522 20.634-2.713 41.354-4.868 62.096-6.561 6.25-0.511 8.044-2.469 7.945-8.555-0.328-20.040-0.434-40.098 0.043-60.131 0.169-7.084-2.527-7.646-8.444-6.995-20.701 2.269-41.441 4.229-62.195 5.917-6.863 0.557-9.865 2.79-9.284 10.294 0.748 9.566 0.183 19.23 0.183 28.854zM646.856 309.344h-12.006c-10.4 0.002-20.812 0.236-31.202-0.092-5.736-0.178-8.903 0.801-8.512 7.699 0.559 9.971 0.34 20.002 0.065 29.994-0.152 5.437 0.897 7.844 7.313 7.118 21.444-2.423 42.948-4.292 64.452-6.137 5.787-0.497 7.919-2.452 8.095-8.821 0.829-29.77 1.083-29.763-28.205-29.763zM693.972 432.157c-0.159 6.807 2.158 7.981 8.264 7.27 21.101-2.462 42.234-4.704 63.398-6.552 5.708-0.497 7.564-2.537 7.371-8.107-0.347-10.019-0.096-20.062-0.094-30.095v-19.261c0-18.772-0.010-18.868-19.216-17.137-16.768 1.509-33.5 3.475-50.28 4.823-6.699 0.535-9.722 2.443-9.481 10.077 0.612 19.642 0.504 39.326 0.039 58.983zM757.927 309.134c-8.247 1.112-16.763 0.207-25.155 0.207h-13.192c-25.818 0-25.538 0-25.615 25.275-0.027 7.637 1.329 10.487 9.872 9.358 18.984-2.508 38.096-4.437 57.215-5.411 10.065-0.514 11.902-4.471 12.259-13.829 0.47-12.107-2.423-17.349-15.384-15.601zM865.353 309.279c-10.8 0.195-21.61 0.060-32.41 0.060-10.803 0-21.632 0.429-32.403-0.152-6.995-0.379-9.24 2.103-8.427 8.751 0.434 3.547 0.287 7.207 0.029 10.791-0.33 4.55 0.986 6.187 5.98 5.645 22.642-2.46 45.301-4.897 68.011-6.547 9.175-0.666 6.79-6.518 7.323-11.736 0.67-6.597-3.161-6.899-8.102-6.812zM873.506 412.010c-0.579-9.197-0.14-18.456-0.142-27.689-0.005-10.439-0.174-20.879 0.065-31.311 0.125-5.44-1.864-6.612-7.174-6.021-21.914 2.445-43.874 4.543-65.845 6.436-5.756 0.499-8.488 2.088-8.36 8.591 0.388 20.064 0.345 40.143 0.024 60.213-0.104 6.429 1.62 8.071 8.235 7.258 21.084-2.587 42.239-4.777 63.424-6.293 8.032-0.576 10.248-3.646 9.773-11.184zM931.891 317.815c-0.67-3.325-0.376-8.548-6.315-8.49-4.798 0.048-9.599 0.010-14.403-0.005-3.197-0.017-6.429 0.256-9.595-0.072-6.306-0.653-9.243 0.948-9.23 8.29 0.014 7.709 4.087 7.224 9.156 6.699 7.945-0.822 15.922-1.423 23.831-2.505 2.549-0.35 7.663 1.579 6.556-3.916zM960.715 406.961c-6.713-20.482-13.402-40.973-19.847-61.539-1.346-4.285-3.443-5.978-7.767-4.762-0.371 0.106-0.798 0.019-1.196 0.063-12.635 1.466-29.261-1.377-36.811 5.597-7.909 7.304-1.391 24.238-2.411 34.74v16.599c0 22.235 0.007 22.312 21.632 20.228 13.932-1.338 27.822-3.185 41.771-4.285 5.107-0.403 6.125-2.079 4.63-6.641zM962.015 432.424c-20.687 2.262-41.407 4.229-62.132 6.101-5.457 0.494-7.386 2.761-7.318 8.372 0.282 23.638 0.253 47.278 0.019 70.916-0.058 5.435 1.712 6.916 6.983 6.318 21.077-2.39 42.166-4.702 63.299-6.513 5.903-0.506 5.867-3.554 5.809-7.851-0.145-12.016-0.051-24.038-0.051-36.059 0-11.618-0.212-23.245 0.099-34.853 0.137-5.167-1.23-7.029-6.708-6.431zM961.504 536.764c-20.703 2.527-41.462 4.685-62.238 6.547-5.158 0.463-6.713 2.223-6.674 7.277 0.207 25.302 0.251 50.608-0.029 75.91-0.060 5.674 2.204 6.853 7.13 6.356 20.752-2.1 41.501-4.299 62.294-5.944 6.212-0.492 6.848-3.431 6.73-8.541-0.287-12.445-0.094-24.902-0.094-37.351 0-12.452-0.294-24.914 0.133-37.351 0.2-5.782-1.104-7.651-7.251-6.904zM987.715 490.042c0.306 5.782-0.928 19.676 1.495 24.812 0.297 0.629 4.27-0.301 4.343-0.68 1.247-6.33-3.492-18.748-5.838-24.132zM1003.439 540.062c-1.96-6.496-5.464-6.39-10.619-6.166-6.882 0.299-4.803 5.228-4.825 8.688-0.15 24.807 0.125 49.62-0.227 74.425-0.084 6.004 1.519 7.456 7.354 6.682 11.008-1.461 22.116-2.175 33.886-3.265-8.741-27.228-17.533-53.683-25.569-80.364zM1036.688 644.464c-1.264-4.092-3.277-4.873-6.913-4.468-5.975 0.666-11.987 1.018-17.952 1.729-23.908 2.853-23.908 2.886-23.908 27.503 0 13.655 0.162 27.31-0.082 40.961-0.089 5.107 0.965 6.74 6.679 5.999 20.277-2.616 40.645-4.524 62.978-6.913-7.169-22.174-14.2-43.428-20.802-64.811z" />
<glyph unicode="&#xe688;" glyph-name="tlg-pin" horiz-adv-x="585" d="M271.255 943.524c15.502 0 31.002 0 46.504 0 147.268-23.252 232.276-108.762 255.779-255.779 0-13.289 0-26.575 0-39.861-63.060-263.584-172.608-480.676-282.354-697.58-98.531 225.896-216.144 432.72-275.711 697.58 0 13.286 0 26.575 0 39.861 23.505 147.017 108.511 232.527 255.781 255.779zM178.241 614.663c39.133-99.919 193.553-99.526 232.527 0 39.688 101.337-47.987 188.262-142.833 169.413-68.727-13.658-121.761-87.521-89.693-169.413z" />
<glyph unicode="&#xe68b;" glyph-name="instagram2" horiz-adv-x="1019" d="M721.112 594.285h297.569v-456.811c0-111.273-90.201-201.477-201.477-201.477h-615.727c-111.271 0-201.474 90.206-201.474 201.477v456.811h296.237c-30.32-42.605-48.213-94.663-48.213-150.938 0-143.954 116.699-260.65 260.655-260.65 143.954 0 260.653 116.696 260.653 260.65-0.005 56.278-17.9 108.338-48.222 150.938zM1018.681 758.526v-132.322h-324.307c-47.278 48.006-113 77.799-185.697 77.799-72.702 0-138.421-29.788-185.697-77.799h-322.98v132.322c0 67.907 33.633 127.923 85.114 164.419v-216.949h41.308v239.497c9.37 3.77 19.086 6.84 29.090 9.174v-248.673h41.31v253.89c1.553 0.040 3.092 0.117 4.653 0.117h23.858v-253.999h41.308v253.999h550.567c111.273 0 201.474-90.201 201.474-201.474zM926.596 843.44c0 17.848-14.47 32.316-32.321 32.316h-108.912c-17.855 0-32.318-14.468-32.318-32.316v-111.31c0-17.848 14.463-32.316 32.318-32.316h108.912c17.85 0 32.321 14.468 32.321 32.316v111.31zM307.866 443.347c0 60.118 26.589 114.104 68.581 150.938 14.729 12.917 31.349 23.709 49.398 31.918 25.274 11.495 53.305 17.955 82.832 17.955 29.529 0 57.555-6.46 82.83-17.955 18.052-8.209 34.669-19.001 49.401-31.918 41.991-36.834 68.578-90.823 68.578-150.938 0-110.726-90.080-200.808-200.808-200.808-110.726 0.002-200.811 90.082-200.811 200.808zM360.925 443.347c0-81.967 66.448-148.41 148.415-148.41s148.413 66.443 148.413 148.41c0 81.97-66.441 148.413-148.413 148.413-81.967 0-148.415-66.443-148.415-148.413z" />
<glyph unicode="&#xe694;" glyph-name="ps3" horiz-adv-x="2665" d="M2126.533 91.151c26.062 1.087 53.696-2.941 53.696-34.898 0-23.127-17.060-36.074-39.275-36.074-26.021 0-39.23 18.62-38.224 43.302h-33.435c0.782-42.645 24.601-71.268 71.659-71.268 39.275 0 72.139 23.82 72.139 62.352 0 26.411-13.897 46.592-36.936 51.188v0.43c19.313 7.231 28.665 23.812 28.665 44.125 0 36.024-32.476 54.378-63.998 54.378-41.212 0-65.991-29.485-67.546-69.445h32.908c-0.438 21.173 10.907 41.911 33.856 41.911 18.36 0 31.697-11.821 31.697-29.1 0-25.028-22.775-32.695-45.209-32.132v-24.768h0.003zM452.35-3.896h36.761v79.855h55.467c59.577-0.272 71.033 38.402 71.033 64.165 0 26.015-11.455 64.555-71.033 64.555h-92.228v-208.575zM489.111 175.064h54.037c19.335 0 35.879-7.278 35.879-34.685 0-26.276-20.073-34.635-36.611-34.635h-53.3v69.32h-0.006zM637.419 204.679h33.402v-208.572h-33.402v208.572zM834.727 107.124c0 32.038-31.301 44.128-60.836 44.128-33.427 0-66.507-11.519-68.802-50.359h33.604c1.023 16.414 14.374 23.812 33.077 23.812 13.75 0 31.395-3.243 31.395-20.477 0-19.482-21.45-16.674-45.483-21.17-27.717-3.204-58.089-9.432-58.089-47.163 0-29.358 24.679-44.075 51.786-44.075 17.778 0 39.053 5.676 52.415 18.487 2.558-14.072 12.403-18.487 25.569-18.487 5.632 0 16.367 2.209 20.979 3.6v23.205c-3.248-0.521-6.131-0.521-7.791-0.521-6.3 0-7.816 3.201-7.816 11.519v77.499h-0.008zM800.849 46.729c0-21.009-22.647-28.623-37.368-28.623-11.799 0-30.633 4.282-30.633 19.313 0 17.667 12.861 22.861 27.254 24.937 14.551 2.597 30.638 2.597 40.747 9.177v-24.804zM905.934-3.766l-3.8-11.688c-3.986-12.511-7.994-21.051-23.601-21.051-5.219 0-10.588 1.164-15.785 2.422v-28.399c7.511-0.826 15.48-1.522 23.141-1.522 34.943 0 42.72 24.466 53.604 51.445l58.846 159.646h-35.112l-38.13-112.838h-0.629l-39.513 112.838h-36.176l57.155-150.855zM1005.355 65.43c0.751-51.955 39.358-74.478 87.164-74.478 41.539 0 82.912 18.756 82.912 65.301 0 21.777-13.032 45.026-40.608 53.685-10.743 2.913-56.858 14.765-60.082 15.724-14.981 4.327-25.089 12.262-25.089 26.971 0 21.176 21.287 27.323 38.429 27.323 25.156 0 43.369-9.912 45.223-37.196h36.287c0 43.823-36.287 66.942-79.949 66.942-37.822 0-76.449-19.485-76.449-61.396 0-21.652 10.369-43.521 46.248-52.953 28.643-7.797 47.67-11.741 62.349-17.323 8.598-3.426 17.342-9.831 17.342-25.414 0-16.156-12.118-31.916-44.292-31.916-29.275 0-52.997 12.559-52.997 44.727l-36.489 0.003zM1187.491 147.092h25.006v45.464h33.56v-45.464h30.028v-24.812h-30.028v-80.662c0-13.817 1.339-20.918 15.934-20.918 4.742 0 9.485 0 14.097 0.989v-25.458c-7.403-0.818-14.285-1.685-21.456-1.685-34.768 0-41.5 13.204-42.132 38.576v89.154h-25.003v24.812h-0.006zM1429.542 107.124c0 32.038-31.22 44.128-60.794 44.128-33.086 0-66.335-11.519-68.63-50.359h33.554c1.391 16.414 14.421 23.812 33.385 23.812 13.357 0 31.134-3.243 31.134-20.477 0-19.482-21.328-16.674-45.489-21.17-27.925-3.204-58.089-9.432-58.089-47.163 0-29.358 24.66-44.075 51.612-44.075 17.905 0 39.23 5.676 52.546 18.487 2.619-14.072 12.279-18.487 26.068-18.487 5.191 0 15.738 2.209 20.824 3.6v23.205c-3.528-0.521-6.475-0.521-8.29-0.521-6.103 0-7.836 3.201-7.836 11.519l0.006 77.502zM1396.152 46.729c0-21.009-22.794-28.623-37.515-28.623-11.605 0-30.635 4.282-30.635 19.313 0 17.667 12.686 22.861 27.082 24.937 14.723 2.597 30.827 2.597 41.065 9.177v-24.804zM1448.869 147.092h25.098v45.464h33.554v-45.464h30.026v-24.812h-30.023v-80.662c0-13.817 1.123-20.918 15.973-20.918 4.562 0 9.307 0 14.050 0.989v-25.458c-7.19-0.818-14.374-1.685-21.589-1.685-34.898 0-41.37 13.204-41.997 38.576v89.154h-25.092v24.815zM1566.189 147.092h33.393v-150.99h-33.393v150.99zM1700.982-8.178c48.543 0 76.293 33.249 76.293 79.711 0 46.334-27.756 79.722-76.293 79.722-48.665 0-76.377-33.388-76.377-79.722 0.003-46.456 27.714-79.711 76.377-79.711zM1700.982 18.106c-30.048 0-43.036 27.018-43.036 53.424 0 26.159 12.991 53.172 43.036 53.172 29.712 0 42.914-27.010 42.914-53.172-0.006-26.406-13.207-53.424-42.914-53.424zM1802.434-3.896h33.252v89.029c0 21.993 14.249 39.569 36.672 39.569 19.485 0 28.839-10.036 29.36-33.551v-95.047h33.512v103.664c0 33.776-20.779 51.484-53.688 51.484-19.701 0-37.149-10.308-47.027-27.154l-0.737 0.604v22.39h-31.348v-150.988h0.003zM1566.189 204.679h33.393v-31.558h-33.393v31.558zM1706.176 960h-349.621c-107.835 0-160.683-66.634-160.683-153.15v-262.825c0-53.693-25.353-92.231-78.868-92.231h-305.803c-2.14 0-3.914-1.774-3.914-3.808v-53.042c0-2.167 1.774-3.986 3.914-3.986h346.137c107.796 0 160.775 66.335 160.775 152.895v262.994c0 53.735 25.159 92.358 78.979 92.358h309.090c2.431 0 4.332 1.732 4.332 3.9v52.953c0 2.079-1.91 3.941-4.338 3.941zM677.012 960h-672.786c-2.447 0-4.224-1.863-4.224-3.939v-52.953c0-2.167 1.774-3.986 4.224-3.986h632.324c53.452 0 78.824-38.54 78.824-92.269 0-53.521-25.372-91.97-78.824-91.97h-500.237c-77.685 0-136.309-65.254-136.309-151.808v-168.003c0-2.298 1.774-4.116 4.224-4.116h113.986c2.234 0 4.094 1.818 4.094 4.116v168.003c0 53.385 30.68 91.055 75.193 91.055h479.513c107.619 0 160.386 66.124 160.386 152.681-0.003 86.421-52.767 153.188-160.389 153.188zM2615.251 682.579c-1.502 1.688-1.502 4.59 0 6.236 33.515 27.756 50.101 69.583 50.101 117.996 0 86.424-52.651 153.188-160.597 153.188h-672.619c-2.292 0-3.977-1.863-3.977-4.113v-52.778c0-2.167 1.682-3.986 3.977-3.986h632.227c53.3 0 79.024-38.54 79.024-92.269 0-53.521-25.549-91.97-79.024-91.97l-632.225-0.13c-2.289 0-3.977-1.646-3.977-4.066v-52.742c0-2.12 1.685-3.811 3.977-3.811h632.227c69.711-0.82 78.888-68.713 78.888-103.442l0.136-6.536c0-53.818-25.721-92.53-79.024-92.53h-632.23c-2.292 0-3.977-1.644-3.977-3.806v-52.873c0-2.167 1.682-3.983 3.977-3.983h672.625c108.035 0 160.594 71.704 160.594 153.191v6.536c-0.003 51.958-16.589 101.58-50.104 131.888z" />
<glyph unicode="&#xe695;" glyph-name="ps4" horiz-adv-x="4914" d="M4802.050 95.532h9.586v62.714h22.69v8.12h-54.985v-8.12h22.709zM4852.726 153.087l19.084-57.555h9.488l19.084 57.555v-57.555h7.925v70.835h-11.55l-19.866-60.496-20.54 60.496h-13.201v-70.835h9.576zM3735.358 724.875h-448.606c-97.238-12.361-144.747-80.127-144.747-166.743v-292.895c0-59.754-28.67-102.553-87.349-102.553h-387.465c-2.199 0-4.407-1.476-4.407-4.417v-58.298c0-2.414 1.485-4.27 3.225-4.876h439.919c114.651 3.019 171.111 76.209 171.111 170.134v292.905c0 59.754 27.888 102.544 87.368 102.544h366.896c2.238 0 4.397 2.228 4.397 4.436v58.278c0 0.508-0.147 1.006-0.342 1.485zM2548.123 724.875h-780.823c-0.225-0.489-0.616-0.87-0.616-1.485v-58.278c0-2.951 1.466-4.436 4.397-4.436h699.396c59.451 0 87.339-42.79 87.339-102.544 0-59.763-27.888-102.553-87.339-102.553h-553.349c-85.863 0-150.444-73.053-150.444-168.952v-186.678c-0.010-2.414 1.026-4.26 3-4.876h128.82c1.739 0.616 3.225 2.462 3.225 4.876v186.678c0 59.754 33.751 101.078 82.922 101.078h530.61c119.624 0 177.609 73.776 177.609 170.427 0 86.616-47.461 154.382-144.747 166.743zM4708.115 230.547h-126.211c-2.16 0-4.407 2.228-4.407 4.427v425.702c0 34.738-12.899 56.861-34.611 64.2h-36.741c-11.452-2.941-23.901-8.208-37.259-16.231l-758.827-468.502c-29.354-18.439-39.644-39.087-32.295-54.584 5.873-13.28 22.7-22.885 55.777-22.885h704.545c2.16 0 3.625-1.466 3.625-2.951v-59.763c0-2.951 2.238-4.427 4.397-4.427h126.992c2.247 0 4.387 1.476 4.387 4.427v58.288c0 2.228 2.247 4.427 4.407 4.427h126.211c2.941 0 4.407 2.218 4.407 4.417v59.031c0.010 2.228-1.456 4.427-4.397 4.427zM4442.503 234.973c0-2.228-2.247-4.427-4.407-4.427h-590.852c-5.091 0-7.348 1.456-8.023 2.951-0.792 2.961 0.664 5.169 4.387 7.378l587.833 363.73c3.713 2.951 11.062 2.208 11.062-5.902v-363.73zM789.187 745.131c3.606-17.716 2.384-35.842 2.609-53.793 0.156-99.202-0.303-198.433 0.235-297.635 29.833-13.895 62.089-24.488 95.332-24.146 21.918-0.44 44.051 4.524 63.369 14.941 20.159 10.798 36.761 27.576 48.692 46.972 13.524 21.967 21.654 46.884 26.227 72.164 5.501 29.090 5.56 58.816 4.632 88.287-1.993 45.165-8.746 91.101-28.426 132.22-10.807 22.69-25.533 43.542-43.523 61.122-16.602 16.924-36.028 30.8-56.255 43.083-45.155 26.813-94.795 44.793-144.65 60.672-31.738 10.25-63.692 19.876-95.723 29.178-55.982 15.889-112.247 31.132-169.489 41.803-0.039-315.917-0.068-631.825 0.010-947.742 71.44-22.709 142.891-45.37 214.351-68.020 0.176 265.593 0 531.206 0.078 796.809 0.44 15.058 2.98 31.123 12.664 43.22 5.824 7.553 15.859 11.55 25.269 9.762 9.303-1.964 18.556-5.599 25.699-12.039 10.759-9.312 16.358-23.139 18.898-36.859zM229.399 183.418c73.58 26.276 147.102 52.845 220.761 78.955 0.616 4.935 0.303 9.928 0.362 14.882-0.059 36.605 0.088 73.19-0.059 109.755-93.192-32.852-186.248-66.164-279.401-99.143-22.709-8.286-45.8-15.674-68.050-25.162-25.826-10.856-51.311-23.022-74.421-38.979-9.977-6.791-19.045-15.537-24.234-26.598-5.384-11.101-5.697-24.37-1.378-35.872 5.15-13.573 15.293-24.605 26.638-33.37 20.589-15.664 45.096-25.172 69.76-32.325 75.193-24.732 154.539-36.986 233.699-35.207 39.311 0.616 78.447 5.335 117.123 12.283 0.616 6.166 0.235 12.39 0.332 18.566-0.059 30.976 0.137 61.933-0.098 92.87-31.504-11.267-62.939-22.719-94.384-34.103-12.097-4.544-24.312-8.814-37.005-11.316-18.781-4.143-38.041-5.57-57.203-5.883-17.198 0.782-34.836 1.72-50.988 8.286-5.804 2.541-12.097 5.902-14.618 12.058-2.003 5.228 0.987 10.632 4.651 14.286 7.847 7.798 18.312 12.156 28.514 16.016zM1295.271 254.517c-18.644 16.739-41.969 27.058-65.255 35.569-13.065 4.163-25.768 9.322-38.881 13.309-66.838 20.97-137.067 29.647-206.944 29.921-21.244-0.762-42.507-1.339-63.633-3.782-58.874-6.772-117.357-18.683-173.349-38.334-0.049-42.937-0.020-85.854-0.029-128.8 77.411 27.028 154.646 54.467 232.028 81.593 25.758 8.677 53.080 12.019 80.147 12.205 17.306-0.489 35.002-1.73 51.262-8.169 5.736-2.482 11.97-5.814 14.579-11.824 2.502-6.869-2.492-13.241-7.593-17.257-12.459-9.967-28.289-13.944-42.966-19.426-108.622-38.764-217.233-77.528-325.884-116.175-2.247-0.42-1.378-3.205-1.593-4.808 0.068-39.966 0-79.961 0.020-119.947 142.764 51.33 285.567 102.583 428.34 153.855 23.403 8.658 47.383 15.996 69.691 27.37 20.96 10.612 41.823 22.778 57.614 40.494 8.306 9.43 14.091 21.713 13.426 34.494-0.117 15.723-9.772 29.491-20.98 39.712zM1237.989 33.697c-17.208-1.945-32.862-13.641-39.507-29.657-5.912-13.876-5.003-30.575 2.638-43.611 8.452-14.814 25.084-24.81 42.253-24.429 18.654-0.616 36.673 11.13 44.559 27.879 7.808 16.133 5.785 36.517-5.267 50.666-10.133 13.68-27.781 21.244-44.676 19.152zM1267.548-48.004c-13.114-9.899-32.334-10.397-46.044-1.388-8.892 5.765-15.498 15.078-17.667 25.504-2.58 11.228-0.010 23.501 6.782 32.774 5.648 7.886 14.237 13.622 23.696 15.762 9.459 2.257 19.719 0.938 28.308-3.625 9.674-5.335 17.354-14.472 20.227-25.23 4.661-15.879-1.769-34.24-15.302-43.797zM1264.969-20.174c-0.44 2.658-2.795 4.192-4.642 5.834 2.12 2.316 5.052 4.28 5.589 7.602 0.987 5.032 0.694 10.866-2.863 14.872-3.518 3.83-9.019 4.993-14.003 5.062-8.814-0.020-17.648 0.020-26.452-0.029 0-18.156-0.107-36.311 0.049-54.506 3.107 0.059 6.234 0.059 9.332 0.010 0.391 7.407 0.088 14.833 0.186 22.24 5.931-0.010 11.921 0.166 17.872-0.088 2.404 0.078 4.935-1.436 5.531-3.87 1.534-5.97-0.303-12.478 2.16-18.283 3.655 0.059 7.299-0.010 10.954 0.098-0.078 2.101-1.114 3.879-2.15 5.638-1.622 4.993-0.547 10.329-1.563 15.42zM1255.617-7.784c-1.72-2.247-4.798-2.746-7.446-2.765-5.345-0.059-10.68-0.020-16.006 0.020 0.010 5.032 0.010 10.035 0 15.058 5.628 0.010 11.276 0.107 16.924-0.059 2.384-0.156 5.286-0.381 6.664-2.668 1.632-2.912 1.671-6.723-0.137-9.586z" />
<glyph unicode="&#xe696;" glyph-name="ps-vita" horiz-adv-x="3454" d="M467.474 960.003h-463.205c-2.473 0-4.272-1.883-4.272-3.984v-53.523c0-2.194 1.794-17.708 4.272-17.708h407.716c54.025 0 94.262-25.272 94.262-79.58 0-54.095-40.236-88.297-94.262-88.297h-283.538c-78.52 0-128.445-65.954-128.445-153.438v-174.47c0-2.32 1.794-4.165 4.272-4.165h115.21c2.255 0 4.138 1.846 4.138 4.165v174.47c0 53.96 38.303 81.575 83.295 81.575h267.857c108.776 0 154.805 72.635 154.805 160.118 0 87.349-53.328 154.837-162.103 154.837v0zM1298.563 954.406h138.78c0 0 194.483-355.569 227.612-416.121 20.753-20.311 20.739-20.153 39.665 0 34.29 62.44 227.881 416.172 227.881 416.172h79.227l-277.123-524.525c0 0-25.964-45.095-79.241-45.095-53.272 0-69.608 44.658-69.608 44.658l-287.192 524.911zM2090.968 949.51v-564.673h114.061v564.687l-114.061-0.014zM2289.063 949.371h554.836v-64.364h-217.514v-500.174h-119.952v499.086h-217.151l-0.218 65.452zM3454.038 384.889h-138.784c0 0-194.474 355.569-227.612 416.121-20.753 20.311-20.734 20.158-39.66 0-34.286-62.435-227.881-416.172-227.881-416.172h-79.232l277.123 524.525c0 0 25.974 45.095 79.241 45.095 53.272 0 69.608-44.653 69.608-44.653l287.197-524.915zM2875.926 571.85h395.763v-67.419h-395.763v67.419zM1244.524 957.957h-272.562c-84.067 0-131.858-67.112-131.858-154.251v-264.705c0-54.076-19.767-85.675-61.487-85.675h-238.397c-1.669 0-3.050-1.79-3.050-3.84v-60.636c0-2.18 7.978-4.012 9.647-4.012h269.842c84.039 0 142.824 66.814 142.824 153.991v264.882c0 54.123 20.26 81.896 62.217 81.896h222.832c1.892 0 3.38 1.748 3.38 3.924v64.462c-0.009 2.087-1.497 3.966-3.389 3.966v0zM953.747-22.767h25.211v54.764h38.047c40.864-0.186 48.721 26.345 48.721 44.007 0 17.852-7.857 44.286-48.721 44.286h-63.258v-143.057zM978.958 99.979h37.066c13.263 0 24.607-4.993 24.607-23.789 0-18.024-13.761-23.761-25.104-23.761h-36.559v47.549h-0.009zM1080.686 120.29h22.91v-143.057h-22.91v143.057zM1216.021 56.312c0 21.98-21.469 30.269-41.729 30.269-22.929 0-45.615-7.899-47.187-34.537h23.040c0.702 11.26 9.86 16.332 22.691 16.332 9.433 0 21.538-2.231 21.538-14.044 0-13.366-14.719-11.432-31.199-14.519-19.014-2.199-39.841-6.471-39.841-32.347 0-20.144 16.927-30.227 35.518-30.227 12.199 0 26.787 3.887 35.95 12.673 1.753-9.647 8.508-12.673 17.536-12.673 3.863 0 11.227 1.506 14.393 2.459v15.923c-2.222-0.358-4.207-0.358-5.346-0.358-4.314 0-5.36 2.194-5.36 7.903v53.156l-0.005-0.009zM1192.781 14.885c0-14.416-15.537-19.632-25.63-19.632-8.094 0-21.013 2.933-21.013 13.245 0 12.12 8.824 15.685 18.693 17.108 9.986 1.785 21.018 1.785 27.949 6.295v-17.015zM1264.858-22.678l-2.608-8.029c-2.729-8.577-5.481-14.426-16.188-14.426-3.575 0-7.257 0.8-10.823 1.655v-19.474c5.151-0.567 10.618-1.046 15.876-1.046 23.965 0 29.298 16.778 36.768 35.281l40.357 109.506h-24.081l-26.155-77.391h-0.428l-27.099 77.391h-24.816l39.195-103.467zM1333.053 28.311c0.516-35.634 26.996-51.087 59.785-51.087 28.493 0 56.875 12.864 56.875 44.788 0 14.946-8.94 30.887-27.856 36.824-7.364 1.999-38.995 10.13-41.208 10.79-10.274 2.961-17.21 8.405-17.21 18.498 0 14.528 14.602 18.744 26.355 18.744 17.261 0 29.753-6.801 31.027-25.509h24.89c0 30.055-24.89 45.913-54.843 45.913-25.941 0-52.435-13.37-52.435-42.115 0-14.853 7.108-29.851 31.72-36.331 19.646-5.342 32.696-8.047 42.77-11.869 5.89-2.352 11.892-6.746 11.892-17.443 0-11.074-8.317-21.892-30.381-21.892-20.079 0-36.35 8.619-36.35 30.688h-25.030zM1457.988 81.853h17.145v31.19h23.021v-31.19h20.59v-17.015h-20.59v-55.332c0-9.479 0.92-14.347 10.93-14.347 3.254 0 6.504 0 9.674 0.679v-17.461c-5.077-0.563-9.8-1.148-14.719-1.148-23.849 0-28.465 9.051-28.898 26.452v61.152h-17.15v17.020h-0.005zM1624.011 56.312c0 21.98-21.422 30.269-41.701 30.269-22.691 0-45.499-7.899-47.070-34.537h23.012c0.958 11.26 9.893 16.332 22.896 16.332 9.163 0 21.357-2.231 21.357-14.044 0-13.366-14.626-11.432-31.199-14.519-19.154-2.199-39.841-6.471-39.841-32.347 0-20.144 16.908-30.227 35.402-30.227 12.278 0 26.903 3.887 36.038 12.673 1.794-9.647 8.424-12.673 17.88-12.673 3.566 0 10.799 1.506 14.286 2.459v15.923c-2.417-0.358-4.444-0.358-5.681-0.358-4.189 0-5.379 2.194-5.379 7.903v53.147zM1601.106 14.885c0-14.416-15.634-19.632-25.736-19.632-7.959 0-21.009 2.933-21.009 13.245 0 12.12 8.703 15.685 18.572 17.108 10.097 1.785 21.148 1.785 28.173 6.295v-17.015zM1637.27 81.853h17.21v31.19h23.017v-31.19h20.595v-17.015h-20.595v-55.332c0-9.479 0.767-14.347 10.953-14.347 3.133 0 6.388 0 9.637 0.679v-17.461c-4.933-0.563-9.856-1.148-14.807-1.148-23.942 0-28.377 9.051-28.805 26.452v61.152h-17.206v17.020zM1810.191-22.767c33.3 0 52.338 22.798 52.338 54.667 0 31.785-19.042 54.681-52.338 54.681-33.379 0-52.389-22.896-52.389-54.681 0-31.868 19.009-54.667 52.389-54.667zM1810.191-4.743c-20.609 0-29.516 18.535-29.516 36.643 0 17.945 8.912 36.475 29.516 36.475 20.381 0 29.437-18.531 29.437-36.475-0.005-18.112-9.061-36.643-29.437-36.643zM1879.776-22.767h22.808v61.064c0 15.076 9.772 27.14 25.151 27.14 13.37 0 19.781-6.885 20.139-23.017v-65.187h22.989v71.096c0 23.166-14.254 35.313-36.824 35.313-13.514 0-25.485-7.062-32.254-18.619l-0.507 0.414v15.351h-21.501v-103.555zM1717.733 80.788h22.905v-103.555h-22.905v103.555zM1717.733 120.295h22.905v-21.65h-22.905v21.65zM2215.968 81.853h17.21v31.19h23.017v-31.19h20.599v-17.015h-20.599v-55.332c0-9.479 0.772-14.347 10.958-14.347 3.129 0 6.383 0 9.637 0.679v-17.461c-4.933-0.563-9.86-1.148-14.807-1.148-23.937 0-28.377 9.051-28.805 26.452v61.152h-17.21v17.020zM2377.309 56.312c0 21.98-21.413 30.269-41.696 30.269-22.691 0-45.499-7.899-47.075-34.537h23.017c0.948 11.26 9.888 16.332 22.896 16.332 9.163 0 21.353-2.231 21.353-14.044 0-13.366-14.626-11.432-31.199-14.519-19.158-2.199-39.851-6.471-39.851-32.347 0-20.144 16.917-30.227 35.406-30.227 12.278 0 26.903 3.887 36.038 12.673 1.794-9.647 8.415-12.673 17.88-12.673 3.566 0 10.795 1.506 14.282 2.459v15.923c-2.422-0.358-4.444-0.358-5.686-0.358-4.184 0-5.379 2.194-5.379 7.903v53.147zM2354.413 14.885c0-14.416-15.634-19.632-25.736-19.632-7.954 0-21.013 2.933-21.013 13.245 0 12.12 8.703 15.685 18.577 17.108 10.097 1.785 21.143 1.785 28.173 6.295v-17.015zM2178.331 80.788h22.905v-103.555h-22.905v103.555zM2178.331 120.295h22.905v-21.65h-22.905v21.65zM2041.503 120.867l48.911-143.633h24.147l48.916 143.633h-24.151l-36.838-108.041-36.838 108.041h-24.147z" />
<glyph unicode="&#xe697;" glyph-name="whatsapp" horiz-adv-x="1016" d="M517.251 960c-275.467 0-498.792-223.317-498.792-498.817 0-94.237 26.152-182.381 71.57-257.569l-90.030-267.614 276.164 88.412c71.467-39.508 153.647-62.046 241.088-62.046 275.51 0 498.824 223.346 498.824 498.817 0 275.5-223.31 498.817-498.824 498.817zM517.251 45.943c-84.327 0-162.868 25.298-228.449 68.656l-159.572-51.082 51.864 154.197c-49.707 68.474-79.077 152.583-79.077 243.47 0 228.981 186.281 415.269 415.23 415.269 228.988 0 415.255-186.288 415.255-415.269 0.007-228.967-186.263-415.24-415.251-415.24zM751.139 347.844c-12.51 6.85-73.924 39.997-85.448 44.683-11.521 4.675-19.917 7.11-28.898-5.318-8.971-12.396-34.448-40.165-42.176-48.386-7.757-8.224-15.217-8.992-27.73-2.125-12.471 6.828-53.007 21.82-100.018 67.010-36.576 35.169-60.567 77.809-67.528 90.819-6.96 13.031-0.050 19.667 6.564 25.766 5.939 5.503 13.299 14.41 19.945 21.599 6.625 7.189 8.964 12.413 13.524 20.752 4.553 8.339 2.725 15.856-0.229 22.345-2.953 6.471-26.070 70.095-35.723 95.976s-20.413 22.031-27.845 22.327c-7.428 0.257-15.874 1.653-24.366 1.964-8.489 0.321-22.409-2.353-34.548-14.649-12.146-12.299-46.193-41.865-48.54-104.532-2.346-62.632 41.004-124.888 47.047-133.605 6.050-8.742 82.78-144.544 210.293-200.39 127.542-55.832 128.206-38.812 151.608-37.562 23.413 1.236 76.481 27.998 88.216 57.31 11.728 29.319 12.667 54.814 9.685 60.242-2.986 5.421-11.339 8.942-23.834 15.774z" />
</font>
</defs>
</svg>
